<?xml version="1.0" encoding="utf-8"?>
<!-- Generator: Adobe Illustrator 25.0.0, SVG Export Plug-In . SVG Version: 6.00 Build 0)  -->
<svg version="1.1" id="svg1324" sodipodi:docname="Puissance4_01.svg" xmlns:cc="http://web.resource.org/cc/" xmlns:dc="http://purl.org/dc/elements/1.1/" xmlns:inkscape="http://www.inkscape.org/namespaces/inkscape" xmlns:rdf="http://www.w3.org/1999/02/22-rdf-syntax-ns#" xmlns:sodipodi="http://inkscape.sourceforge.net/DTD/sodipodi-0.dtd" xmlns:svg="http://www.w3.org/2000/svg" xmlns="http://www.w3.org/2000/svg" xmlns:xlink="http://www.w3.org/1999/xlink" x="0px" y="0px" viewBox="0 0 523.7 452.3" style="enable-background:new 0 0 523.7 452.3;" xml:space="preserve">
	<style type="text/css">
	.st0{fill-rule:evenodd;clip-rule:evenodd;fill:#FF0000;}
	.st1{fill-rule:evenodd;clip-rule:evenodd;fill:#FFFFFF;fill-opacity:0.7118;}
	.st2{fill-rule:evenodd;clip-rule:evenodd;fill-opacity:0.345;}
	.st3{fill-rule:evenodd;clip-rule:evenodd;fill:#FFAE00;}
	.st4{fill-rule:evenodd;clip-rule:evenodd;fill:#002AE0;}
	.st5{fill-rule:evenodd;clip-rule:evenodd;fill:#FFFFFF;fill-opacity:0.3799;}
	.st6{fill-rule:evenodd;clip-rule:evenodd;fill-opacity:0.3188;}
</style>
	<sodipodi:namedview bordercolor="#666666" borderopacity="1.0" id="base" inkscape:current-layer="layer1" inkscape:cx="643.84941" inkscape:cy="405.41803" inkscape:document-units="mm" inkscape:pageopacity="0.0" inkscape:pageshadow="2" inkscape:window-height="970" inkscape:window-width="1280" inkscape:window-x="1276" inkscape:window-y="-4" inkscape:zoom="0.75024142" pagecolor="#ffffff"></sodipodi:namedview>
	<g id="layer1" inkscape:groupmode="layer" inkscape:label="Layer 1">
		<g id="g2932" transform="matrix(1.067148,0,0,1.058798,-9.922884,-459.8516)">
			<g>
				<g id="g2332_42_" transform="translate(86.6383,692.6067)">

					<path id="path1447_42_" sodipodi:cx="114.28571" sodipodi:cy="218.07646" sodipodi:rx="42.857143" sodipodi:ry="42.857143" sodipodi:type="arc" class="st0" d="
					M330.8-168.1c8.3,14.4,3.4,32.9-11,41.2c-14.4,8.3-32.9,3.4-41.2-11c0,0,0,0,0,0c-8.3-14.4-3.4-32.9,11-41.2
					C304-187.5,322.4-182.6,330.8-168.1C330.8-168.2,330.8-168.2,330.8-168.1z" />
					<g id="g2326_42_" transform="matrix(0.866025,-0.5,0.5,0.866025,-33.11146,-38.98956)">
						<path id="path2328_83_" class="st1" d="M323.3,69.4c0,0.4,0,0.8,0,1.3c0,14.5,11.8,26.3,26.3,26.3s26.3-11.8,26.3-26.3
						c0-0.4,0-0.8,0-1.3c-0.7,13.9-12.2,24.9-26.2,24.9S324,83.3,323.3,69.4z" />
						<path id="path2330_83_" class="st2" d="M323.3,70.7c0-0.4,0-0.8,0-1.3c0-14.5,11.8-26.3,26.3-26.3s26.3,11.8,26.3,26.3
						c0,0.4,0,0.8,0,1.3c-0.7-13.9-12.2-24.9-26.2-24.9S324,56.9,323.3,70.7z" />
					</g>
				</g>
				<g id="g2332_41_" transform="translate(86.6383,692.6067)">

					<path id="path1447_41_" sodipodi:cx="114.28571" sodipodi:cy="218.07646" sodipodi:rx="42.857143" sodipodi:ry="42.857143" sodipodi:type="arc" class="st0" d="
					M332.6-238.2c8.3,14.4,3.4,32.9-11,41.2c-14.4,8.3-32.9,3.4-41.2-11c0,0,0,0,0,0c-8.3-14.4-3.4-32.9,11-41.2
					C305.8-257.6,324.2-252.6,332.6-238.2C332.5-238.2,332.6-238.2,332.6-238.2z" />
					<g id="g2326_41_" transform="matrix(0.866025,-0.5,0.5,0.866025,-33.11146,-38.98956)">
						<path id="path2328_81_" class="st1" d="M359.9,9.7c0,0.4,0,0.8,0,1.3c0,14.5,11.8,26.3,26.3,26.3s26.3-11.8,26.3-26.3
						c0-0.4,0-0.8,0-1.3c-0.7,13.9-12.2,24.9-26.2,24.9S360.6,23.6,359.9,9.7z" />
						<path id="path2330_81_" class="st2" d="M359.9,11c0-0.4,0-0.8,0-1.3c0-14.5,11.8-26.3,26.3-26.3s26.3,11.8,26.3,26.3
						c0,0.4,0,0.8,0,1.3C411.6-2.9,400.2-14,386.1-14C372.1-14,360.6-2.9,359.9,11z" />
					</g>
				</g>
				<g id="g2332_40_" transform="translate(86.6383,692.6067)">

					<path id="path1447_40_" sodipodi:cx="114.28571" sodipodi:cy="218.07646" sodipodi:rx="42.857143" sodipodi:ry="42.857143" sodipodi:type="arc" class="st0" d="
					M332.5-98.8c8.3,14.4,3.4,32.9-11,41.2c-14.4,8.3-32.9,3.4-41.2-11c0,0,0,0,0,0c-8.3-14.4-3.4-32.9,11-41.2
					C305.7-118.2,324.2-113.3,332.5-98.8C332.5-98.8,332.5-98.8,332.5-98.8z" />
					<g id="g2326_40_" transform="matrix(0.866025,-0.5,0.5,0.866025,-33.11146,-38.98956)">
						<path id="path2328_79_" class="st1" d="M290.2,130.4c0,0.4,0,0.8,0,1.3c0,14.5,11.8,26.3,26.3,26.3s26.3-11.8,26.3-26.3
						c0-0.4,0-0.8,0-1.3c-0.7,13.9-12.2,24.9-26.2,24.9S290.9,144.3,290.2,130.4z" />
						<path id="path2330_79_" class="st2" d="M290.2,131.7c0-0.4,0-0.8,0-1.3c0-14.5,11.8-26.3,26.3-26.3s26.3,11.8,26.3,26.3
						c0,0.4,0,0.8,0,1.3c-0.7-13.9-12.2-24.9-26.2-24.9S290.9,117.8,290.2,131.7z" />
					</g>
				</g>
				<g id="g2332_39_" transform="translate(86.6383,692.6067)">

					<path id="path1447_39_" sodipodi:cx="114.28571" sodipodi:cy="218.07646" sodipodi:rx="42.857143" sodipodi:ry="42.857143" sodipodi:type="arc" class="st0" d="
					M329.9,40.3c8.3,14.4,3.4,32.9-11,41.2c-14.4,8.3-32.9,3.4-41.2-11c0,0,0,0,0,0c-8.3-14.4-3.4-32.9,11-41.2
					S321.5,25.8,329.9,40.3C329.9,40.3,329.9,40.3,329.9,40.3z" />
					<g id="g2326_39_" transform="matrix(0.866025,-0.5,0.5,0.866025,-33.11146,-38.98956)">
						<path id="path2328_77_" class="st1" d="M218.3,249.5c0,0.4,0,0.8,0,1.3c0,14.5,11.8,26.3,26.3,26.3s26.3-11.8,26.3-26.3
						c0-0.4,0-0.8,0-1.3c-0.7,13.9-12.2,24.9-26.2,24.9S219,263.4,218.3,249.5z" />
						<path id="path2330_77_" class="st2" d="M218.3,250.8c0-0.4,0-0.8,0-1.3c0-14.5,11.8-26.3,26.3-26.3s26.3,11.8,26.3,26.3
						c0,0.4,0,0.8,0,1.3c-0.7-13.9-12.2-24.9-26.2-24.9S219,236.9,218.3,250.8z" />
					</g>
				</g>
				<g id="g2332_38_" transform="translate(86.6383,692.6067)">

					<path id="path1447_38_" sodipodi:cx="114.28571" sodipodi:cy="218.07646" sodipodi:rx="42.857143" sodipodi:ry="42.857143" sodipodi:type="arc" class="st0" d="
					M331.7-29.8c8.3,14.4,3.4,32.9-11,41.2c-14.4,8.3-32.9,3.4-41.2-11c0,0,0,0,0,0c-8.3-14.4-3.4-32.9,11-41.2
					S323.3-44.2,331.7-29.8C331.7-29.8,331.7-29.8,331.7-29.8z" />
					<g id="g2326_38_" transform="matrix(0.866025,-0.5,0.5,0.866025,-33.11146,-38.98956)">
						<path id="path2328_75_" class="st1" d="M254.9,189.7c0,0.4,0,0.8,0,1.3c0,14.5,11.8,26.3,26.3,26.3s26.3-11.8,26.3-26.3
						c0-0.4,0-0.8,0-1.3c-0.7,13.9-12.2,24.9-26.2,24.9S255.6,203.6,254.9,189.7z" />
						<path id="path2330_75_" class="st2" d="M254.9,191c0-0.4,0-0.8,0-1.3c0-14.5,11.8-26.3,26.3-26.3s26.3,11.8,26.3,26.3
						c0,0.4,0,0.8,0,1.3c-0.7-13.9-12.2-24.9-26.2-24.9S255.6,177.1,254.9,191z" />
					</g>
				</g>
				<g id="g2332_37_" transform="translate(86.6383,692.6067)">

					<path id="path1447_37_" sodipodi:cx="114.28571" sodipodi:cy="218.07646" sodipodi:rx="42.857143" sodipodi:ry="42.857143" sodipodi:type="arc" class="st0" d="
					M331.7,109.6c8.3,14.4,3.4,32.9-11,41.2c-14.4,8.3-32.9,3.4-41.2-11c0,0,0,0,0,0c-8.3-14.4-3.4-32.9,11-41.2
					C304.9,90.2,323.3,95.2,331.7,109.6C331.6,109.6,331.6,109.6,331.7,109.6z" />
					<g id="g2326_37_" transform="matrix(0.866025,-0.5,0.5,0.866025,-33.11146,-38.98956)">
						<path id="path2328_73_" class="st1" d="M185.2,310.4c0,0.4,0,0.8,0,1.3c0,14.5,11.8,26.3,26.3,26.3s26.3-11.8,26.3-26.3
						c0-0.4,0-0.8,0-1.3c-0.7,13.9-12.2,24.9-26.2,24.9C197.4,335.4,185.9,324.3,185.2,310.4z" />
						<path id="path2330_73_" class="st2" d="M185.2,311.7c0-0.4,0-0.8,0-1.3c0-14.5,11.8-26.3,26.3-26.3s26.3,11.8,26.3,26.3
						c0,0.4,0,0.8,0,1.3c-0.7-13.9-12.2-24.9-26.2-24.9S185.9,297.8,185.2,311.7z" />
					</g>
				</g>
			</g>
			<g>
				<g id="g2332_36_" transform="translate(86.6383,692.6067)">

					<path id="path1447_36_" sodipodi:cx="114.28571" sodipodi:cy="218.07646" sodipodi:rx="42.857143" sodipodi:ry="42.857143" sodipodi:type="arc" class="st0" d="
					M399.7-167.7c8.3,14.4,3.4,32.9-11,41.2c-14.4,8.3-32.9,3.4-41.2-11c0,0,0,0,0,0c-8.3-14.4-3.4-32.9,11-41.2
					C372.9-187.1,391.4-182.2,399.7-167.7C399.7-167.7,399.7-167.7,399.7-167.7z" />
					<g id="g2326_36_" transform="matrix(0.866025,-0.5,0.5,0.866025,-33.11146,-38.98956)">
						<path id="path2328_71_" class="st1" d="M382.8,104.3c0,0.4,0,0.8,0,1.3c0,14.5,11.8,26.3,26.3,26.3s26.3-11.8,26.3-26.3
						c0-0.4,0-0.8,0-1.3c-0.7,13.9-12.2,24.9-26.2,24.9S383.5,118.2,382.8,104.3z" />
						<path id="path2330_71_" class="st2" d="M382.8,105.6c0-0.4,0-0.8,0-1.3c0-14.5,11.8-26.3,26.3-26.3s26.3,11.8,26.3,26.3
						c0,0.4,0,0.8,0,1.3c-0.7-13.9-12.2-24.9-26.2-24.9S383.5,91.7,382.8,105.6z" />
					</g>
				</g>
				<g id="g2332_35_" transform="translate(86.6383,692.6067)">

					<path id="path1447_35_" sodipodi:cx="114.28571" sodipodi:cy="218.07646" sodipodi:rx="42.857143" sodipodi:ry="42.857143" sodipodi:type="arc" class="st0" d="
					M401.5-237.8c8.3,14.4,3.4,32.9-11,41.2c-14.4,8.3-32.9,3.4-41.2-11c0,0,0,0,0,0c-8.3-14.4-3.4-32.9,11-41.2
					C374.7-257.1,393.2-252.2,401.5-237.8C401.5-237.8,401.5-237.8,401.5-237.8z" />
					<g id="g2326_35_" transform="matrix(0.866025,-0.5,0.5,0.866025,-33.11146,-38.98956)">
						<path id="path2328_69_" class="st1" d="M419.4,44.5c0,0.4,0,0.8,0,1.3c0,14.5,11.8,26.3,26.3,26.3c14.5,0,26.3-11.8,26.3-26.3
						c0-0.4,0-0.8,0-1.3c-0.7,13.9-12.2,24.9-26.2,24.9C431.6,69.5,420.1,58.4,419.4,44.5z" />
						<path id="path2330_69_" class="st2" d="M419.4,45.8c0-0.4,0-0.8,0-1.3c0-14.5,11.8-26.3,26.3-26.3s26.3,11.8,26.3,26.3
						c0,0.4,0,0.8,0,1.3c-0.7-13.9-12.2-24.9-26.2-24.9C431.6,20.9,420.1,32,419.4,45.8z" />
					</g>
				</g>
				<g id="g2332_34_" transform="translate(86.6383,692.6067)">

					<path id="path1447_34_" sodipodi:cx="114.28571" sodipodi:cy="218.07646" sodipodi:rx="42.857143" sodipodi:ry="42.857143" sodipodi:type="arc" class="st0" d="
					M401.5-98.4c8.3,14.4,3.4,32.9-11,41.2c-14.4,8.3-32.9,3.4-41.2-11c0,0,0,0,0,0c-8.3-14.4-3.4-32.9,11-41.2
					S393.2-112.8,401.5-98.4C401.5-98.4,401.5-98.4,401.5-98.4z" />
					<g id="g2326_34_" transform="matrix(0.866025,-0.5,0.5,0.866025,-33.11146,-38.98956)">
						<path id="path2328_67_" class="st1" d="M349.7,165.2c0,0.4,0,0.8,0,1.3c0,14.5,11.8,26.3,26.3,26.3s26.3-11.8,26.3-26.3
						c0-0.4,0-0.8,0-1.3c-0.7,13.9-12.2,24.9-26.2,24.9S350.4,179.1,349.7,165.2z" />
						<path id="path2330_67_" class="st2" d="M349.7,166.5c0-0.4,0-0.8,0-1.3c0-14.5,11.8-26.3,26.3-26.3s26.3,11.8,26.3,26.3
						c0,0.4,0,0.8,0,1.3c-0.7-13.9-12.2-24.9-26.2-24.9S350.4,152.7,349.7,166.5z" />
					</g>
				</g>
				<g id="g2332_33_" transform="translate(86.6383,692.6067)">

					<path id="path1447_33_" sodipodi:cx="114.28571" sodipodi:cy="218.07646" sodipodi:rx="42.857143" sodipodi:ry="42.857143" sodipodi:type="arc" class="st0" d="
					M398.8,40.7c8.3,14.4,3.4,32.9-11,41.2c-14.4,8.3-32.9,3.4-41.2-11c0,0,0,0,0,0c-8.3-14.4-3.4-32.9,11-41.2
					S390.5,26.3,398.8,40.7C398.8,40.7,398.8,40.7,398.8,40.7z" />
					<g id="g2326_33_" transform="matrix(0.866025,-0.5,0.5,0.866025,-33.11146,-38.98956)">
						<path id="path2328_65_" class="st1" d="M277.9,284.3c0,0.4,0,0.8,0,1.3c0,14.5,11.8,26.3,26.3,26.3s26.3-11.8,26.3-26.3
						c0-0.4,0-0.8,0-1.3c-0.7,13.9-12.2,24.9-26.2,24.9S278.6,298.2,277.9,284.3z" />
						<path id="path2330_65_" class="st2" d="M277.9,285.6c0-0.4,0-0.8,0-1.3c0-14.5,11.8-26.3,26.3-26.3s26.3,11.8,26.3,26.3
						c0,0.4,0,0.8,0,1.3c-0.7-13.9-12.2-24.9-26.2-24.9S278.6,271.8,277.9,285.6z" />
					</g>
				</g>
				<g id="g2332_32_" transform="translate(86.6383,692.6067)">

					<path id="path1447_32_" sodipodi:cx="114.28571" sodipodi:cy="218.07646" sodipodi:rx="42.857143" sodipodi:ry="42.857143" sodipodi:type="arc" class="st0" d="
					M400.6-29.3c8.3,14.4,3.4,32.9-11,41.2c-14.4,8.3-32.9,3.4-41.2-11c0,0,0,0,0,0c-8.3-14.4-3.4-32.9,11-41.2
					S392.3-43.8,400.6-29.3C400.6-29.4,400.6-29.3,400.6-29.3z" />
					<g id="g2326_32_" transform="matrix(0.866025,-0.5,0.5,0.866025,-33.11146,-38.98956)">
						<path id="path2328_63_" class="st1" d="M314.4,224.6c0,0.4,0,0.8,0,1.3c0,14.5,11.8,26.3,26.3,26.3c14.5,0,26.3-11.8,26.3-26.3
						c0-0.4,0-0.8,0-1.3c-0.7,13.9-12.2,24.9-26.2,24.9C326.6,249.5,315.1,238.5,314.4,224.6z" />
						<path id="path2330_63_" class="st2" d="M314.4,225.9c0-0.4,0-0.8,0-1.3c0-14.5,11.8-26.3,26.3-26.3c14.5,0,26.3,11.8,26.3,26.3
						c0,0.4,0,0.8,0,1.3c-0.7-13.9-12.2-24.9-26.2-24.9C326.6,200.9,315.1,212,314.4,225.9z" />
					</g>
				</g>
				<g id="g2332_31_" transform="translate(86.6383,692.6067)">

					<path id="path1447_31_" sodipodi:cx="114.28571" sodipodi:cy="218.07646" sodipodi:rx="42.857143" sodipodi:ry="42.857143" sodipodi:type="arc" class="st0" d="
					M400.6,110c8.3,14.4,3.4,32.9-11,41.2c-14.4,8.3-32.9,3.4-41.2-11c0,0,0,0,0,0c-8.3-14.4-3.4-32.9,11-41.2
					C373.8,90.7,392.3,95.6,400.6,110C400.6,110,400.6,110,400.6,110z" />
					<g id="g2326_31_" transform="matrix(0.866025,-0.5,0.5,0.866025,-33.11146,-38.98956)">
						<path id="path2328_61_" class="st1" d="M244.7,345.3c0,0.4,0,0.8,0,1.3c0,14.5,11.8,26.3,26.3,26.3s26.3-11.8,26.3-26.3
						c0-0.4,0-0.8,0-1.3c-0.7,13.9-12.2,24.9-26.2,24.9S245.4,359.2,244.7,345.3z" />
						<path id="path2330_61_" class="st2" d="M244.7,346.6c0-0.4,0-0.8,0-1.3c0-14.5,11.8-26.3,26.3-26.3s26.3,11.8,26.3,26.3
						c0,0.4,0,0.8,0,1.3c-0.7-13.9-12.2-24.9-26.2-24.9S245.4,332.7,244.7,346.6z" />
					</g>
				</g>
			</g>
			<g>
				<g id="g2332_30_" transform="translate(86.6383,692.6067)">

					<path id="path1447_30_" sodipodi:cx="114.28571" sodipodi:cy="218.07646" sodipodi:rx="42.857143" sodipodi:ry="42.857143" sodipodi:type="arc" class="st0" d="
					M262.1-167.9c8.3,14.4,3.4,32.9-11,41.2c-14.4,8.3-32.9,3.4-41.2-11c0,0,0,0,0,0c-8.3-14.4-3.4-32.9,11-41.2
					S253.7-182.4,262.1-167.9C262-167.9,262-167.9,262.1-167.9z" />
					<g id="g2326_30_" transform="matrix(0.866025,-0.5,0.5,0.866025,-33.11146,-38.98956)">
						<path id="path2328_59_" class="st1" d="M263.7,35.3c0,0.4,0,0.8,0,1.3c0,14.5,11.8,26.3,26.3,26.3c14.5,0,26.3-11.8,26.3-26.3
						c0-0.4,0-0.8,0-1.3c-0.7,13.9-12.2,24.9-26.2,24.9C275.9,60.2,264.4,49.1,263.7,35.3z" />
						<path id="path2330_59_" class="st2" d="M263.7,36.6c0-0.4,0-0.8,0-1.3c0-14.5,11.8-26.3,26.3-26.3c14.5,0,26.3,11.8,26.3,26.3
						c0,0.4,0,0.8,0,1.3c-0.7-13.9-12.2-24.9-26.2-24.9C275.9,11.6,264.4,22.7,263.7,36.6z" />
					</g>
				</g>
				<g id="g2332_29_" transform="translate(86.6383,692.6067)">

					<path id="path1447_29_" sodipodi:cx="114.28571" sodipodi:cy="218.07646" sodipodi:rx="42.857143" sodipodi:ry="42.857143" sodipodi:type="arc" class="st0" d="
					M263.8-238c8.3,14.4,3.4,32.9-11,41.2c-14.4,8.3-32.9,3.4-41.2-11c0,0,0,0,0,0c-8.3-14.4-3.4-32.9,11-41.2
					C237-257.4,255.5-252.4,263.8-238C263.8-238,263.8-238,263.8-238z" />
					<g id="g2326_29_" transform="matrix(0.866025,-0.5,0.5,0.866025,-33.11146,-38.98956)">
						<path id="path2328_57_" class="st1" d="M300.3-24.5c0,0.4,0,0.8,0,1.3c0,14.5,11.8,26.3,26.3,26.3c14.5,0,26.3-11.8,26.3-26.3
						c0-0.4,0-0.8,0-1.3C352-10.6,340.5,0.4,326.5,0.4S301-10.6,300.3-24.5z" />
						<path id="path2330_57_" class="st2" d="M300.3-23.2c0-0.4,0-0.8,0-1.3c0-14.5,11.8-26.3,26.3-26.3s26.3,11.8,26.3,26.3
						c0,0.4,0,0.8,0,1.3c-0.7-13.9-12.2-24.9-26.2-24.9S301-37.1,300.3-23.2z" />
					</g>
				</g>
				<g id="g2332_28_" transform="translate(86.6383,692.6067)">

					<path id="path1447_28_" sodipodi:cx="114.28571" sodipodi:cy="218.07646" sodipodi:rx="42.857143" sodipodi:ry="42.857143" sodipodi:type="arc" class="st0" d="
					M263.8-98.6c8.3,14.4,3.4,32.9-11,41.2s-32.9,3.4-41.2-11c0,0,0,0,0,0c-8.3-14.4-3.4-32.9,11-41.2C237-118,255.5-113,263.8-98.6
					C263.8-98.6,263.8-98.6,263.8-98.6z" />
					<g id="g2326_28_" transform="matrix(0.866025,-0.5,0.5,0.866025,-33.11146,-38.98956)">
						<path id="path2328_55_" class="st1" d="M230.6,96.2c0,0.4,0,0.8,0,1.3c0,14.5,11.8,26.3,26.3,26.3c14.5,0,26.3-11.8,26.3-26.3
						c0-0.4,0-0.8,0-1.3c-0.7,13.9-12.2,24.9-26.2,24.9C242.8,121.1,231.3,110.1,230.6,96.2z" />
						<path id="path2330_55_" class="st2" d="M230.6,97.5c0-0.4,0-0.8,0-1.3c0-14.5,11.8-26.3,26.3-26.3c14.5,0,26.3,11.8,26.3,26.3
						c0,0.4,0,0.8,0,1.3c-0.7-13.9-12.2-24.9-26.2-24.9C242.8,72.6,231.3,83.6,230.6,97.5z" />
					</g>
				</g>
				<g id="g2332_27_" transform="translate(86.6383,692.6067)">

					<path id="path1447_27_" sodipodi:cx="114.28571" sodipodi:cy="218.07646" sodipodi:rx="42.857143" sodipodi:ry="42.857143" sodipodi:type="arc" class="st0" d="
					M261.2,40.5c8.3,14.4,3.4,32.9-11,41.2c-14.4,8.3-32.9,3.4-41.2-11c0,0,0,0,0,0c-8.3-14.4-3.4-32.9,11-41.2
					C234.4,21.1,252.8,26,261.2,40.5C261.1,40.5,261.2,40.5,261.2,40.5z" />
					<g id="g2326_27_" transform="matrix(0.866025,-0.5,0.5,0.866025,-33.11146,-38.98956)">
						<path id="path2328_53_" class="st1" d="M158.7,215.3c0,0.4,0,0.8,0,1.3c0,14.5,11.8,26.3,26.3,26.3c14.5,0,26.3-11.8,26.3-26.3
						c0-0.4,0-0.8,0-1.3c-0.7,13.9-12.2,24.9-26.2,24.9C170.9,240.2,159.4,229.2,158.7,215.3z" />
						<path id="path2330_53_" class="st2" d="M158.7,216.6c0-0.4,0-0.8,0-1.3c0-14.5,11.8-26.3,26.3-26.3c14.5,0,26.3,11.8,26.3,26.3
						c0,0.4,0,0.8,0,1.3c-0.7-13.9-12.2-24.9-26.2-24.9C170.9,191.7,159.4,202.7,158.7,216.6z" />
					</g>
				</g>
				<g id="g2332_26_" transform="translate(86.6383,692.6067)">

					<path id="path1447_26_" sodipodi:cx="114.28571" sodipodi:cy="218.07646" sodipodi:rx="42.857143" sodipodi:ry="42.857143" sodipodi:type="arc" class="st0" d="
					M262.9-29.6c8.3,14.4,3.4,32.9-11,41.2c-14.4,8.3-32.9,3.4-41.2-11c0,0,0,0,0,0c-8.3-14.4-3.4-32.9,11-41.2
					C236.1-48.9,254.6-44,262.9-29.6C262.9-29.6,262.9-29.6,262.9-29.6z" />
					<g id="g2326_26_" transform="matrix(0.866025,-0.5,0.5,0.866025,-33.11146,-38.98956)">
						<path id="path2328_51_" class="st1" d="M195.3,155.6c0,0.4,0,0.8,0,1.3c0,14.5,11.8,26.3,26.3,26.3s26.3-11.8,26.3-26.3
						c0-0.4,0-0.8,0-1.3c-0.7,13.9-12.2,24.9-26.2,24.9C207.5,180.5,196,169.4,195.3,155.6z" />
						<path id="path2330_51_" class="st2" d="M195.3,156.8c0-0.4,0-0.8,0-1.3c0-14.5,11.8-26.3,26.3-26.3s26.3,11.8,26.3,26.3
						c0,0.4,0,0.8,0,1.3c-0.7-13.9-12.2-24.9-26.2-24.9C207.5,131.9,196,143,195.3,156.8z" />
					</g>
				</g>
				<g id="g2332_25_" transform="translate(86.6383,692.6067)">

					<path id="path1447_25_" sodipodi:cx="114.28571" sodipodi:cy="218.07646" sodipodi:rx="42.857143" sodipodi:ry="42.857143" sodipodi:type="arc" class="st0" d="
					M262.9,109.8c8.3,14.4,3.4,32.9-11,41.2c-14.4,8.3-32.9,3.4-41.2-11c0,0,0,0,0,0c-8.3-14.4-3.4-32.9,11-41.2
					S254.6,95.4,262.9,109.8C262.9,109.8,262.9,109.8,262.9,109.8z" />
					<g id="g2326_25_" transform="matrix(0.866025,-0.5,0.5,0.866025,-33.11146,-38.98956)">
						<path id="path2328_49_" class="st1" d="M125.6,276.3c0,0.4,0,0.8,0,1.3c0,14.5,11.8,26.3,26.3,26.3c14.5,0,26.3-11.8,26.3-26.3
						c0-0.4,0-0.8,0-1.3c-0.7,13.9-12.2,24.9-26.2,24.9C137.8,301.2,126.3,290.1,125.6,276.3z" />
						<path id="path2330_49_" class="st2" d="M125.6,277.5c0-0.4,0-0.8,0-1.3c0-14.5,11.8-26.3,26.3-26.3c14.5,0,26.3,11.8,26.3,26.3
						c0,0.4,0,0.8,0,1.3c-0.7-13.9-12.2-24.9-26.2-24.9C137.8,252.6,126.3,263.7,125.6,277.5z" />
					</g>
				</g>
			</g>
			<g>
				<g id="g2332_24_" transform="translate(86.6383,692.6067)">

					<path id="path1447_24_" sodipodi:cx="114.28571" sodipodi:cy="218.07646" sodipodi:rx="42.857143" sodipodi:ry="42.857143" sodipodi:type="arc" class="st0" d="
					M126.5-167.3c8.3,14.4,3.4,32.9-11,41.2c-14.4,8.3-32.9,3.4-41.2-11c0,0,0,0,0,0c-8.3-14.4-3.4-32.9,11-41.2
					C99.7-186.7,118.1-181.7,126.5-167.3C126.5-167.3,126.5-167.3,126.5-167.3z" />
					<g id="g2326_24_" transform="matrix(0.866025,-0.5,0.5,0.866025,-33.11146,-38.98956)">
						<path id="path2328_47_" class="st1" d="M146-31.9c0,0.4,0,0.8,0,1.3c0,14.5,11.8,26.3,26.3,26.3s26.3-11.8,26.3-26.3
						c0-0.4,0-0.8,0-1.3C197.7-18.1,186.2-7,172.2-7S146.7-18.1,146-31.9z" />
						<path id="path2330_47_" class="st2" d="M146-30.7c0-0.4,0-0.8,0-1.3c0-14.5,11.8-26.3,26.3-26.3s26.3,11.8,26.3,26.3
						c0,0.4,0,0.8,0,1.3c-0.7-13.9-12.2-24.9-26.2-24.9S146.7-44.5,146-30.7z" />
					</g>
				</g>
				<g id="g2332_23_" transform="translate(86.6383,692.6067)">

					<path id="path1447_23_" sodipodi:cx="114.28571" sodipodi:cy="218.07646" sodipodi:rx="42.857143" sodipodi:ry="42.857143" sodipodi:type="arc" class="st0" d="
					M128.3-237.3c8.3,14.4,3.4,32.9-11,41.2c-14.4,8.3-32.9,3.4-41.2-11c0,0,0,0,0,0c-8.3-14.4-3.4-32.9,11-41.2
					C101.5-256.7,119.9-251.8,128.3-237.3C128.3-237.3,128.3-237.3,128.3-237.3z" />
					<g id="g2326_23_" transform="matrix(0.866025,-0.5,0.5,0.866025,-33.11146,-38.98956)">
						<path id="path2328_45_" class="st1" d="M182.5-91.7c0,0.4,0,0.8,0,1.3c0,14.5,11.8,26.3,26.3,26.3c14.5,0,26.3-11.8,26.3-26.3
						c0-0.4,0-0.8,0-1.3c-0.7,13.9-12.2,24.9-26.2,24.9C194.7-66.8,183.3-77.8,182.5-91.7z" />
						<path id="path2330_45_" class="st2" d="M182.5-90.4c0-0.4,0-0.8,0-1.3c0-14.5,11.8-26.3,26.3-26.3S235-106.2,235-91.7
						c0,0.4,0,0.8,0,1.3c-0.7-13.9-12.2-24.9-26.2-24.9C194.7-115.3,183.3-104.3,182.5-90.4z" />
					</g>
				</g>
				<g id="g2332_22_" transform="translate(86.6383,692.6067)">

					<path id="path1447_22_" sodipodi:cx="114.28571" sodipodi:cy="218.07646" sodipodi:rx="42.857143" sodipodi:ry="42.857143" sodipodi:type="arc" class="st0" d="
					M128.3-97.9c8.3,14.4,3.4,32.9-11,41.2c-14.4,8.3-32.9,3.4-41.2-11c0,0,0,0,0,0c-8.3-14.4-3.4-32.9,11-41.2
					C101.5-117.3,119.9-112.4,128.3-97.9C128.3-97.9,128.3-97.9,128.3-97.9z" />
					<g id="g2326_22_" transform="matrix(0.866025,-0.5,0.5,0.866025,-33.11146,-38.98956)">
						<path id="path2328_43_" class="st1" d="M112.8,29c0,0.4,0,0.8,0,1.3c0,14.5,11.8,26.3,26.3,26.3s26.3-11.8,26.3-26.3
						c0-0.4,0-0.8,0-1.3c-0.7,13.9-12.2,24.9-26.2,24.9S113.6,42.9,112.8,29z" />
						<path id="path2330_43_" class="st2" d="M112.8,30.3c0-0.4,0-0.8,0-1.3c0-14.5,11.8-26.3,26.3-26.3c14.5,0,26.3,11.8,26.3,26.3
						c0,0.4,0,0.8,0,1.3c-0.7-13.9-12.2-24.9-26.2-24.9S113.6,16.4,112.8,30.3z" />
					</g>
				</g>
				<g id="g2332_21_" transform="translate(86.6383,692.6067)">

					<path id="path1447_21_" sodipodi:cx="114.28571" sodipodi:cy="218.07646" sodipodi:rx="42.857143" sodipodi:ry="42.857143" sodipodi:type="arc" class="st0" d="
					M125.6,41.1c8.3,14.4,3.4,32.9-11,41.2c-14.4,8.3-32.9,3.4-41.2-11c0,0,0,0,0,0C65,56.9,70,38.4,84.4,30.1
					S117.2,26.7,125.6,41.1C125.6,41.1,125.6,41.1,125.6,41.1z" />
					<g id="g2326_21_" transform="matrix(0.866025,-0.5,0.5,0.866025,-33.11146,-38.98956)">
						<path id="path2328_41_" class="st1" d="M41,148.1c0,0.4,0,0.8,0,1.3c0,14.5,11.8,26.3,26.3,26.3s26.3-11.8,26.3-26.3
						c0-0.4,0-0.8,0-1.3C92.7,162,81.3,173,67.2,173S41.7,162,41,148.1z" />
						<path id="path2330_41_" class="st2" d="M41,149.4c0-0.4,0-0.8,0-1.3c0-14.5,11.8-26.3,26.3-26.3c14.5,0,26.3,11.8,26.3,26.3
						c0,0.4,0,0.8,0,1.3c-0.7-13.9-12.2-24.9-26.2-24.9S41.7,135.5,41,149.4z" />
					</g>
				</g>
				<g id="g2332_20_" transform="translate(86.6383,692.6067)">

					<path id="path1447_20_" sodipodi:cx="114.28571" sodipodi:cy="218.07646" sodipodi:rx="42.857143" sodipodi:ry="42.857143" sodipodi:type="arc" class="st0" d="
					M127.4-28.9c8.3,14.4,3.4,32.9-11,41.2c-14.4,8.3-32.9,3.4-41.2-11c0,0,0,0,0,0c-8.3-14.4-3.4-32.9,11-41.2
					C100.6-48.3,119-43.3,127.4-28.9C127.4-28.9,127.4-28.9,127.4-28.9z" />
					<g id="g2326_20_" transform="matrix(0.866025,-0.5,0.5,0.866025,-33.11146,-38.98956)">
						<path id="path2328_39_" class="st1" d="M77.6,88.4c0,0.4,0,0.8,0,1.3c0,14.5,11.8,26.3,26.3,26.3S130,104.1,130,89.6
						c0-0.4,0-0.8,0-1.3c-0.7,13.9-12.2,24.9-26.2,24.9S78.3,102.2,77.6,88.4z" />
						<path id="path2330_39_" class="st2" d="M77.6,89.6c0-0.4,0-0.8,0-1.3c0-14.5,11.8-26.3,26.3-26.3S130,73.9,130,88.4
						c0,0.4,0,0.8,0,1.3c-0.7-13.9-12.2-24.9-26.2-24.9S78.3,75.8,77.6,89.6z" />
					</g>
				</g>
				<g id="g2332_19_" transform="translate(86.6383,692.6067)">

					<path id="path1447_19_" sodipodi:cx="114.28571" sodipodi:cy="218.07646" sodipodi:rx="42.857143" sodipodi:ry="42.857143" sodipodi:type="arc" class="st0" d="
					M127.4,110.5c8.3,14.4,3.4,32.9-11,41.2c-14.4,8.3-32.9,3.4-41.2-11c0,0,0,0,0,0c-8.3-14.4-3.4-32.9,11-41.2S119,96,127.4,110.5
					C127.4,110.5,127.4,110.5,127.4,110.5z" />
					<g id="g2326_19_" transform="matrix(0.866025,-0.5,0.5,0.866025,-33.11146,-38.98956)">
						<path id="path2328_37_" class="st1" d="M7.9,209.1c0,0.4,0,0.8,0,1.3c0,14.5,11.8,26.3,26.3,26.3s26.3-11.8,26.3-26.3
						c0-0.4,0-0.8,0-1.3C59.6,222.9,48.1,234,34.1,234S8.6,222.9,7.9,209.1z" />
						<path id="path2330_37_" class="st2" d="M7.9,210.3c0-0.4,0-0.8,0-1.3c0-14.5,11.8-26.3,26.3-26.3s26.3,11.8,26.3,26.3
						c0,0.4,0,0.8,0,1.3c-0.7-13.9-12.2-24.9-26.2-24.9S8.6,196.5,7.9,210.3z" />
					</g>
				</g>
			</g>
			<g>
				<g id="g2332_18_" transform="translate(86.6383,692.6067)">

					<path id="path1447_18_" sodipodi:cx="114.28571" sodipodi:cy="218.07646" sodipodi:rx="42.857143" sodipodi:ry="42.857143" sodipodi:type="arc" class="st0" d="
					M195.5-166.8c8.3,14.4,3.4,32.9-11,41.2c-14.4,8.3-32.9,3.4-41.2-11c0,0,0,0,0,0c-8.3-14.4-3.4-32.9,11-41.2
					C168.7-186.2,187.1-181.3,195.5-166.8C195.4-166.9,195.5-166.8,195.5-166.8z" />
					<g id="g2326_18_" transform="matrix(0.866025,-0.5,0.5,0.866025,-33.11146,-38.98956)">
						<path id="path2328_35_" class="st1" d="M205.5,2.9c0,0.4,0,0.8,0,1.3c0,14.5,11.8,26.3,26.3,26.3c14.5,0,26.3-11.8,26.3-26.3
						c0-0.4,0-0.8,0-1.3c-0.7,13.9-12.2,24.9-26.2,24.9C217.7,27.8,206.2,16.8,205.5,2.9z" />
						<path id="path2330_35_" class="st2" d="M205.5,4.2c0-0.4,0-0.8,0-1.3c0-14.5,11.8-26.3,26.3-26.3c14.5,0,26.3,11.8,26.3,26.3
						c0,0.4,0,0.8,0,1.3c-0.7-13.9-12.2-24.9-26.2-24.9C217.7-20.7,206.2-9.7,205.5,4.2z" />
					</g>
				</g>
				<g id="g2332_17_" transform="translate(86.6383,692.6067)">

					<path id="path1447_17_" sodipodi:cx="114.28571" sodipodi:cy="218.07646" sodipodi:rx="42.857143" sodipodi:ry="42.857143" sodipodi:type="arc" class="st0" d="
					M197.2-236.9c8.3,14.4,3.4,32.9-11,41.2c-14.4,8.3-32.9,3.4-41.2-11c0,0,0,0,0,0c-8.3-14.4-3.4-32.9,11-41.2
					C170.4-256.3,188.9-251.3,197.2-236.9C197.2-236.9,197.2-236.9,197.2-236.9z" />
					<g id="g2326_17_" transform="matrix(0.866025,-0.5,0.5,0.866025,-33.11146,-38.98956)">
						<path id="path2328_33_" class="st1" d="M242.1-56.8c0,0.4,0,0.8,0,1.3c0,14.5,11.8,26.3,26.3,26.3c14.5,0,26.3-11.8,26.3-26.3
						c0-0.4,0-0.8,0-1.3c-0.7,13.9-12.2,24.9-26.2,24.9C254.2-31.9,242.8-43,242.1-56.8z" />
						<path id="path2330_33_" class="st2" d="M242.1-55.6c0-0.4,0-0.8,0-1.3c0-14.5,11.8-26.3,26.3-26.3c14.5,0,26.3,11.8,26.3,26.3
						c0,0.4,0,0.8,0,1.3c-0.7-13.9-12.2-24.9-26.2-24.9C254.2-80.5,242.8-69.4,242.1-55.6z" />
					</g>
				</g>
				<g id="g2332_16_" transform="translate(86.6383,692.6067)">

					<path id="path1447_16_" sodipodi:cx="114.28571" sodipodi:cy="218.07646" sodipodi:rx="42.857143" sodipodi:ry="42.857143" sodipodi:type="arc" class="st0" d="
					M197.2-97.5c8.3,14.4,3.4,32.9-11,41.2c-14.4,8.3-32.9,3.4-41.2-11c0,0,0,0,0,0c-8.3-14.4-3.4-32.9,11-41.2
					S188.9-111.9,197.2-97.5C197.2-97.5,197.2-97.5,197.2-97.5z" />
					<g id="g2326_16_" transform="matrix(0.866025,-0.5,0.5,0.866025,-33.11146,-38.98956)">
						<path id="path2328_31_" class="st1" d="M172.4,63.9c0,0.4,0,0.8,0,1.3c0,14.5,11.8,26.3,26.3,26.3c14.5,0,26.3-11.8,26.3-26.3
						c0-0.4,0-0.8,0-1.3c-0.7,13.9-12.2,24.9-26.2,24.9C184.5,88.8,173.1,77.7,172.4,63.9z" />
						<path id="path2330_31_" class="st2" d="M172.4,65.1c0-0.4,0-0.8,0-1.3c0-14.5,11.8-26.3,26.3-26.3c14.5,0,26.3,11.8,26.3,26.3
						c0,0.4,0,0.8,0,1.3c-0.7-13.9-12.2-24.9-26.2-24.9C184.5,40.2,173.1,51.3,172.4,65.1z" />
					</g>
				</g>
				<g id="g2332_15_" transform="translate(86.6383,692.6067)">

					<path id="path1447_15_" sodipodi:cx="114.28571" sodipodi:cy="218.07646" sodipodi:rx="42.857143" sodipodi:ry="42.857143" sodipodi:type="arc" class="st0" d="
					M194.6,41.6c8.3,14.4,3.4,32.9-11,41.2c-14.4,8.3-32.9,3.4-41.2-11c0,0,0,0,0,0c-8.3-14.4-3.4-32.9,11-41.2
					S186.2,27.1,194.6,41.6C194.6,41.6,194.6,41.6,194.6,41.6z" />
					<g id="g2326_15_" transform="matrix(0.866025,-0.5,0.5,0.866025,-33.11146,-38.98956)">
						<path id="path2328_29_" class="st1" d="M100.5,183c0,0.4,0,0.8,0,1.3c0,14.5,11.8,26.3,26.3,26.3s26.3-11.8,26.3-26.3
						c0-0.4,0-0.8,0-1.3c-0.7,13.9-12.2,24.9-26.2,24.9S101.2,196.8,100.5,183z" />
						<path id="path2330_29_" class="st2" d="M100.5,184.2c0-0.4,0-0.8,0-1.3c0-14.5,11.8-26.3,26.3-26.3S153,168.5,153,183
						c0,0.4,0,0.8,0,1.3c-0.7-13.9-12.2-24.9-26.2-24.9S101.2,170.4,100.5,184.2z" />
					</g>
				</g>
				<g id="g2332_14_" transform="translate(86.6383,692.6067)">

					<path id="path1447_14_" sodipodi:cx="114.28571" sodipodi:cy="218.07646" sodipodi:rx="42.857143" sodipodi:ry="42.857143" sodipodi:type="arc" class="st0" d="
					M196.4-28.5c8.3,14.4,3.4,32.9-11,41.2c-14.4,8.3-32.9,3.4-41.2-11c0,0,0,0,0,0c-8.3-14.4-3.4-32.9,11-41.2
					C169.6-47.8,188-42.9,196.4-28.5C196.3-28.5,196.3-28.5,196.4-28.5z" />
					<g id="g2326_14_" transform="matrix(0.866025,-0.5,0.5,0.866025,-33.11146,-38.98956)">
						<path id="path2328_27_" class="st1" d="M137.1,123.2c0,0.4,0,0.8,0,1.3c0,14.5,11.8,26.3,26.3,26.3s26.3-11.8,26.3-26.3
						c0-0.4,0-0.8,0-1.3c-0.7,13.9-12.2,24.9-26.2,24.9S137.8,137.1,137.1,123.2z" />
						<path id="path2330_27_" class="st2" d="M137.1,124.5c0-0.4,0-0.8,0-1.3c0-14.5,11.8-26.3,26.3-26.3s26.3,11.8,26.3,26.3
						c0,0.4,0,0.8,0,1.3c-0.7-13.9-12.2-24.9-26.2-24.9S137.8,110.6,137.1,124.5z" />
					</g>
				</g>
				<g id="g2332_13_" transform="translate(86.6383,692.6067)">

					<path id="path1447_13_" sodipodi:cx="114.28571" sodipodi:cy="218.07646" sodipodi:rx="42.857143" sodipodi:ry="42.857143" sodipodi:type="arc" class="st0" d="
					M196.3,110.9c8.3,14.4,3.4,32.9-11,41.2c-14.4,8.3-32.9,3.4-41.2-11c0,0,0,0,0,0c-8.3-14.4-3.4-32.9,11-41.2
					C169.5,91.5,188,96.5,196.3,110.9C196.3,110.9,196.3,110.9,196.3,110.9z" />
					<g id="g2326_13_" transform="matrix(0.866025,-0.5,0.5,0.866025,-33.11146,-38.98956)">
						<path id="path2328_25_" class="st1" d="M67.4,243.9c0,0.4,0,0.8,0,1.3c0,14.5,11.8,26.3,26.3,26.3s26.3-11.8,26.3-26.3
						c0-0.4,0-0.8,0-1.3c-0.7,13.9-12.2,24.9-26.2,24.9S68.1,257.8,67.4,243.9z" />
						<path id="path2330_25_" class="st2" d="M67.4,245.2c0-0.4,0-0.8,0-1.3c0-14.5,11.8-26.3,26.3-26.3s26.3,11.8,26.3,26.3
						c0,0.4,0,0.8,0,1.3c-0.7-13.9-12.2-24.9-26.2-24.9S68.1,231.3,67.4,245.2z" />
					</g>
				</g>
			</g>
			<g>
				<g id="g2332_12_" transform="translate(86.6383,692.6067)">

					<path id="path1447_12_" sodipodi:cx="114.28571" sodipodi:cy="218.07646" sodipodi:rx="42.857143" sodipodi:ry="42.857143" sodipodi:type="arc" class="st0" d="
					M57.8-167.1c8.3,14.4,3.4,32.9-11,41.2c-14.4,8.3-32.9,3.4-41.2-11c0,0,0,0,0,0c-8.3-14.4-3.4-32.9,11-41.2
					C31-186.4,49.4-181.5,57.8-167.1C57.8-167.1,57.8-167.1,57.8-167.1z" />
					<g id="g2326_12_" transform="matrix(0.866025,-0.5,0.5,0.866025,-33.11146,-38.98956)">
						<path id="path2328_23_" class="st1" d="M86.4-66.1c0,0.4,0,0.8,0,1.3c0,14.5,11.8,26.3,26.3,26.3s26.3-11.8,26.3-26.3
						c0-0.4,0-0.8,0-1.3c-0.7,13.9-12.2,24.9-26.2,24.9S87.1-52.2,86.4-66.1z" />
						<path id="path2330_23_" class="st2" d="M86.4-64.8c0-0.4,0-0.8,0-1.3c0-14.5,11.8-26.3,26.3-26.3s26.3,11.8,26.3,26.3
						c0,0.4,0,0.8,0,1.3c-0.7-13.9-12.2-24.9-26.2-24.9S87.1-78.7,86.4-64.8z" />
					</g>
				</g>
				<g id="g2332_11_" transform="translate(86.6383,692.6067)">

					<path id="path1447_11_" sodipodi:cx="114.28571" sodipodi:cy="218.07646" sodipodi:rx="42.857143" sodipodi:ry="42.857143" sodipodi:type="arc" class="st0" d="
					M59.6-237.1c8.3,14.4,3.4,32.9-11,41.2c-14.4,8.3-32.9,3.4-41.2-11c0,0,0,0,0,0c-8.3-14.4-3.4-32.9,11-41.2
					C32.8-256.5,51.2-251.5,59.6-237.1C59.6-237.1,59.6-237.1,59.6-237.1z" />
					<g id="g2326_11_" transform="matrix(0.866025,-0.5,0.5,0.866025,-33.11146,-38.98956)">
						<path id="path2328_21_" class="st1" d="M122.9-125.9c0,0.4,0,0.8,0,1.3c0,14.5,11.8,26.3,26.3,26.3c14.5,0,26.3-11.8,26.3-26.3
						c0-0.4,0-0.8,0-1.3c-0.7,13.9-12.2,24.9-26.2,24.9C135.1-100.9,123.6-112,122.9-125.9z" />
						<path id="path2330_21_" class="st2" d="M122.9-124.6c0-0.4,0-0.8,0-1.3c0-14.5,11.8-26.3,26.3-26.3c14.5,0,26.3,11.8,26.3,26.3
						c0,0.4,0,0.8,0,1.3c-0.7-13.9-12.2-24.9-26.2-24.9C135.1-149.5,123.6-138.5,122.9-124.6z" />
					</g>
				</g>
				<g id="g2332_10_" transform="translate(86.6383,692.6067)">

					<path id="path1447_10_" sodipodi:cx="114.28571" sodipodi:cy="218.07646" sodipodi:rx="42.857143" sodipodi:ry="42.857143" sodipodi:type="arc" class="st0" d="
					M59.6-97.7c8.3,14.4,3.4,32.9-11,41.2c-14.4,8.3-32.9,3.4-41.2-11c0,0,0,0,0,0c-8.3-14.4-3.4-32.9,11-41.2S51.2-112.2,59.6-97.7
					C59.5-97.7,59.5-97.7,59.6-97.7z" />
					<g id="g2326_10_" transform="matrix(0.866025,-0.5,0.5,0.866025,-33.11146,-38.98956)">
						<path id="path2328_19_" class="st1" d="M53.2-5.2c0,0.4,0,0.8,0,1.3c0,14.5,11.8,26.3,26.3,26.3s26.3-11.8,26.3-26.3
						c0-0.4,0-0.8,0-1.3C105,8.7,93.5,19.8,79.4,19.8S53.9,8.7,53.2-5.2z" />
						<path id="path2330_19_" class="st2" d="M53.2-3.9c0-0.4,0-0.8,0-1.3c0-14.5,11.8-26.3,26.3-26.3s26.3,11.8,26.3,26.3
						c0,0.4,0,0.8,0,1.3C105-17.8,93.5-28.8,79.4-28.8S53.9-17.8,53.2-3.9z" />
					</g>
				</g>
				<g id="g2332_9_" transform="translate(86.6383,692.6067)">

					<path id="path1447_9_" sodipodi:cx="114.28571" sodipodi:cy="218.07646" sodipodi:rx="42.857143" sodipodi:ry="42.857143" sodipodi:type="arc" class="st0" d="
					M56.9,41.4c8.3,14.4,3.4,32.9-11,41.2C31.4,90.9,13,86,4.6,71.5c0,0,0,0,0,0c-8.3-14.4-3.4-32.9,11-41.2S48.5,26.9,56.9,41.4
					C56.9,41.3,56.9,41.4,56.9,41.4z" />
					<g id="g2326_9_" transform="matrix(0.866025,-0.5,0.5,0.866025,-33.11146,-38.98956)">
						<path id="path2328_17_" class="st1" d="M-18.6,113.9c0,0.4,0,0.8,0,1.3c0,14.5,11.8,26.3,26.3,26.3s26.3-11.8,26.3-26.3
						c0-0.4,0-0.8,0-1.3c-0.7,13.9-12.2,24.9-26.2,24.9S-17.9,127.8-18.6,113.9z" />
						<path id="path2330_17_" class="st2" d="M-18.6,115.2c0-0.4,0-0.8,0-1.3c0-14.5,11.8-26.3,26.3-26.3s26.3,11.8,26.3,26.3
						c0,0.4,0,0.8,0,1.3c-0.7-13.9-12.2-24.9-26.2-24.9S-17.9,101.4-18.6,115.2z" />
					</g>
				</g>
				<g id="g2332_8_" transform="translate(86.6383,692.6067)">

					<path id="path1447_8_" sodipodi:cx="114.28571" sodipodi:cy="218.07646" sodipodi:rx="42.857143" sodipodi:ry="42.857143" sodipodi:type="arc" class="st0" d="
					M58.7-28.7c8.3,14.4,3.4,32.9-11,41.2c-14.4,8.3-32.9,3.4-41.2-11c0,0,0,0,0,0c-8.3-14.4-3.4-32.9,11-41.2S50.3-43.1,58.7-28.7
					C58.7-28.7,58.7-28.7,58.7-28.7z" />
					<g id="g2326_8_" transform="matrix(0.866025,-0.5,0.5,0.866025,-33.11146,-38.98956)">
						<path id="path2328_15_" class="st1" d="M17.9,54.2c0,0.4,0,0.8,0,1.3c0,14.5,11.8,26.3,26.3,26.3S70.4,70,70.4,55.5
						c0-0.4,0-0.8,0-1.3c-0.7,13.9-12.2,24.9-26.2,24.9S18.6,68.1,17.9,54.2z" />
						<path id="path2330_15_" class="st2" d="M17.9,55.5c0-0.4,0-0.8,0-1.3c0-14.5,11.8-26.3,26.3-26.3s26.3,11.8,26.3,26.3
						c0,0.4,0,0.8,0,1.3c-0.7-13.9-12.2-24.9-26.2-24.9S18.6,41.6,17.9,55.5z" />
					</g>
				</g>
				<g id="g2332_7_" transform="translate(86.6383,692.6067)">

					<path id="path1447_7_" sodipodi:cx="114.28571" sodipodi:cy="218.07646" sodipodi:rx="42.857143" sodipodi:ry="42.857143" sodipodi:type="arc" class="st0" d="
					M58.7,110.7c8.3,14.4,3.4,32.9-11,41.2c-14.4,8.3-32.9,3.4-41.2-11c0,0,0,0,0,0c-8.3-14.4-3.4-32.9,11-41.2
					S50.3,96.3,58.7,110.7C58.6,110.7,58.7,110.7,58.7,110.7z" />
					<g id="g2326_7_" transform="matrix(0.866025,-0.5,0.5,0.866025,-33.11146,-38.98956)">
						<path id="path2328_2_" class="st1" d="M-51.8,174.9c0,0.4,0,0.8,0,1.3c0,14.5,11.8,26.3,26.3,26.3s26.3-11.8,26.3-26.3
						c0-0.4,0-0.8,0-1.3c-0.7,13.9-12.2,24.9-26.2,24.9S-51,188.8-51.8,174.9z" />
						<path id="path2330_2_" class="st2" d="M-51.8,176.2c0-0.4,0-0.8,0-1.3c0-14.5,11.8-26.3,26.3-26.3s26.3,11.8,26.3,26.3
						c0,0.4,0,0.8,0,1.3c-0.7-13.9-12.2-24.9-26.2-24.9S-51,162.3-51.8,176.2z" />
					</g>
				</g>
			</g>
			<g>
				<g id="g2332_6_" transform="translate(86.6383,692.6067)">

					<path id="path1447_6_" sodipodi:cx="114.28571" sodipodi:cy="218.07646" sodipodi:rx="42.857143" sodipodi:ry="42.857143" sodipodi:type="arc" class="st0" d="
					M-11.2-167.5c8.3,14.4,3.4,32.9-11,41.2c-14.4,8.3-32.9,3.4-41.2-11c0,0,0,0,0,0c-8.3-14.4-3.4-32.9,11-41.2
					C-38-186.9-19.5-181.9-11.2-167.5C-11.2-167.5-11.2-167.5-11.2-167.5z" />
					<g id="g2326_6_" transform="matrix(0.866025,-0.5,0.5,0.866025,-33.11146,-38.98956)">
						<path id="path2328_12_" class="st1" d="M26.8-101c0,0.4,0,0.8,0,1.3c0,14.5,11.8,26.3,26.3,26.3s26.3-11.8,26.3-26.3
						c0-0.4,0-0.8,0-1.3C78.6-87.1,67.1-76,53.1-76S27.6-87.1,26.8-101z" />
						<path id="path2330_12_" class="st2" d="M26.8-99.7c0-0.4,0-0.8,0-1.3c0-14.5,11.8-26.3,26.3-26.3s26.3,11.8,26.3,26.3
						c0,0.4,0,0.8,0,1.3c-0.7-13.9-12.2-24.9-26.2-24.9S27.6-113.5,26.8-99.7z" />
					</g>
				</g>
				<g id="g2332_5_" transform="translate(86.6383,692.6067)">

					<path id="path1447_5_" sodipodi:cx="114.28571" sodipodi:cy="218.07646" sodipodi:rx="42.857143" sodipodi:ry="42.857143" sodipodi:type="arc" class="st0" d="
					M-9.4-237.5c8.3,14.4,3.4,32.9-11,41.2c-14.4,8.3-32.9,3.4-41.2-11c0,0,0,0,0,0c-8.3-14.4-3.4-32.9,11-41.2
					C-36.2-256.9-17.8-252-9.4-237.5C-9.4-237.5-9.4-237.5-9.4-237.5z" />
					<g id="g2326_5_" transform="matrix(0.866025,-0.5,0.5,0.866025,-33.11146,-38.98956)">
						<path id="path2328_10_" class="st1" d="M63.4-160.7c0,0.4,0,0.8,0,1.3c0,14.5,11.8,26.3,26.3,26.3s26.3-11.8,26.3-26.3
						c0-0.4,0-0.8,0-1.3c-0.7,13.9-12.2,24.9-26.2,24.9S64.1-146.9,63.4-160.7z" />
						<path id="path2330_10_" class="st2" d="M63.4-159.4c0-0.4,0-0.8,0-1.3c0-14.5,11.8-26.3,26.3-26.3s26.3,11.8,26.3,26.3
						c0,0.4,0,0.8,0,1.3c-0.7-13.9-12.2-24.9-26.2-24.9S64.1-173.3,63.4-159.4z" />
					</g>
				</g>
				<g id="g2332_4_" transform="translate(86.6383,692.6067)">

					<path id="path1447_4_" sodipodi:cx="114.28571" sodipodi:cy="218.07646" sodipodi:rx="42.857143" sodipodi:ry="42.857143" sodipodi:type="arc" class="st0" d="
					M-9.4-98.1c8.3,14.4,3.4,32.9-11,41.2c-14.4,8.3-32.9,3.4-41.2-11c0,0,0,0,0,0c-8.3-14.4-3.4-32.9,11-41.2S-17.8-112.6-9.4-98.1
					C-9.4-98.2-9.4-98.1-9.4-98.1z" />
					<g id="g2326_4_" transform="matrix(0.866025,-0.5,0.5,0.866025,-33.11146,-38.98956)">
						<path id="path2328_8_" class="st1" d="M-6.3-40c0,0.4,0,0.8,0,1.3c0,14.5,11.8,26.3,26.3,26.3s26.3-11.8,26.3-26.3
						c0-0.4,0-0.8,0-1.3C45.4-26.1,34-15.1,19.9-15.1S-5.6-26.1-6.3-40z" />
						<path id="path2330_8_" class="st2" d="M-6.3-38.7c0-0.4,0-0.8,0-1.3c0-14.5,11.8-26.3,26.3-26.3S46.2-54.5,46.2-40
						c0,0.4,0,0.8,0,1.3C45.4-52.6,34-63.7,19.9-63.7C5.9-63.7-5.6-52.6-6.3-38.7z" />
					</g>
				</g>
				<g id="g2332_2_" transform="translate(86.6383,692.6067)">

					<path id="path1447_2_" sodipodi:cx="114.28571" sodipodi:cy="218.07646" sodipodi:rx="42.857143" sodipodi:ry="42.857143" sodipodi:type="arc" class="st0" d="
					M-12.1,40.9c8.3,14.4,3.4,32.9-11,41.2c-14.4,8.3-32.9,3.4-41.2-11c0,0,0,0,0,0c-8.3-14.4-3.4-32.9,11-41.2
					S-20.4,26.5-12.1,40.9C-12.1,40.9-12.1,40.9-12.1,40.9z" />
					<g id="g2326_2_" transform="matrix(0.866025,-0.5,0.5,0.866025,-33.11146,-38.98956)">
						<path id="path2328_4_" class="st1" d="M-78.1,79.1c0,0.4,0,0.8,0,1.3c0,14.5,11.8,26.3,26.3,26.3s26.3-11.8,26.3-26.3
						c0-0.4,0-0.8,0-1.3C-26.4,93-37.9,104-51.9,104S-77.4,93-78.1,79.1z" />
						<path id="path2330_4_" class="st2" d="M-78.1,80.4c0-0.4,0-0.8,0-1.3c0-14.5,11.8-26.3,26.3-26.3s26.3,11.8,26.3,26.3
						c0,0.4,0,0.8,0,1.3c-0.7-13.9-12.2-24.9-26.2-24.9S-77.4,66.5-78.1,80.4z" />
					</g>
				</g>
				<g id="g2332_3_" transform="translate(86.6383,692.6067)">

					<path id="path1447_3_" sodipodi:cx="114.28571" sodipodi:cy="218.07646" sodipodi:rx="42.857143" sodipodi:ry="42.857143" sodipodi:type="arc" class="st0" d="
					M-10.3-29.1c8.3,14.4,3.4,32.9-11,41.2c-14.4,8.3-32.9,3.4-41.2-11c0,0,0,0,0,0c-8.3-14.4-3.4-32.9,11-41.2
					S-18.6-43.5-10.3-29.1C-10.3-29.1-10.3-29.1-10.3-29.1z" />
					<g id="g2326_3_" transform="matrix(0.866025,-0.5,0.5,0.866025,-33.11146,-38.98956)">
						<path id="path2328_6_" class="st1" d="M-41.6,19.3c0,0.4,0,0.8,0,1.3c0,14.5,11.8,26.3,26.3,26.3s26.3-11.8,26.3-26.3
						c0-0.4,0-0.8,0-1.3C10.2,33.2-1.3,44.2-15.3,44.2S-40.9,33.2-41.6,19.3z" />
						<path id="path2330_6_" class="st2" d="M-41.6,20.6c0-0.4,0-0.8,0-1.3c0-14.5,11.8-26.3,26.3-26.3S10.9,4.8,10.9,19.3
						c0,0.4,0,0.8,0,1.3C10.2,6.7-1.3-4.3-15.3-4.3C-29.4-4.3-40.9,6.7-41.6,20.6z" />
					</g>
				</g>
				<g id="g2332_1_" transform="translate(86.6383,692.6067)">

					<path id="path1447_1_" sodipodi:cx="114.28571" sodipodi:cy="218.07646" sodipodi:rx="42.857143" sodipodi:ry="42.857143" sodipodi:type="arc" class="st0" d="
					M-10.3,110.3c8.3,14.4,3.4,32.9-11,41.2c-14.4,8.3-32.9,3.4-41.2-11c0,0,0,0,0,0c-8.3-14.4-3.4-32.9,11-41.2
					S-18.7,95.8-10.3,110.3C-10.3,110.3-10.3,110.3-10.3,110.3z" />
					<g id="g2326_1_" transform="matrix(0.866025,-0.5,0.5,0.866025,-33.11146,-38.98956)">
						<path id="path2328_1_" class="st1" d="M-111.3,140c0,0.4,0,0.8,0,1.3c0,14.5,11.8,26.3,26.3,26.3s26.3-11.8,26.3-26.3
						c0-0.4,0-0.8,0-1.3c-0.7,13.9-12.2,24.9-26.2,24.9S-110.6,153.9-111.3,140z" />
						<path id="path2330_1_" class="st2" d="M-111.3,141.3c0-0.4,0-0.8,0-1.3c0-14.5,11.8-26.3,26.3-26.3s26.3,11.8,26.3,26.3
						c0,0.4,0,0.8,0,1.3c-0.7-13.9-12.2-24.9-26.2-24.9S-110.6,127.4-111.3,141.3z" />
					</g>
				</g>
			</g>
			<g id="g2922" transform="translate(-96.62518,464.1788)">

				<path id="path2924" sodipodi:cx="114.28571" sodipodi:cy="218.07646" sodipodi:rx="42.857143" sodipodi:ry="42.857143" sodipodi:type="arc" class="st3" d="
				M378.1,198.1c8.3,14.4,3.4,32.9-11,41.2c-14.4,8.3-32.9,3.4-41.2-11c0,0,0,0,0,0c-8.3-14.4-3.4-32.9,11-41.2
				C351.3,178.8,369.8,183.7,378.1,198.1C378.1,198.1,378.1,198.1,378.1,198.1z" />
				<g id="g2926" transform="matrix(0.866025,-0.5,0.5,0.866025,246.7984,188.937)">
					<path id="path2928" class="st1" d="M52.7,73c0,0.4,0,0.8,0,1.3c0,14.5,11.8,26.3,26.3,26.3s26.3-11.8,26.3-26.3
					c0-0.4,0-0.8,0-1.3C104.5,86.9,93,97.9,78.9,97.9S53.4,86.9,52.7,73z" />
					<path id="path2930" class="st2" d="M52.7,74.3c0-0.4,0-0.8,0-1.3c0-14.5,11.8-26.3,26.3-26.3s26.3,11.8,26.3,26.3
					c0,0.4,0,0.8,0,1.3C104.5,60.4,93,49.3,78.9,49.3S53.4,60.4,52.7,74.3z" />
				</g>
			</g>
			<g id="g2922_1_" transform="translate(-96.62518,464.1788)">

				<path id="path2924_1_" sodipodi:cx="114.28571" sodipodi:cy="218.07646" sodipodi:rx="42.857143" sodipodi:ry="42.857143" sodipodi:type="arc" class="st3" d="
				M310,200c8.3,14.4,3.4,32.9-11,41.2c-14.4,8.3-32.9,3.4-41.2-11c0,0,0,0,0,0c-8.3-14.4-3.4-32.9,11-41.2
				C283.2,180.6,301.7,185.5,310,200C310,200,310,200,310,200z" />
				<g id="g2926_1_" transform="matrix(0.866025,-0.5,0.5,0.866025,246.7984,188.937)">
					<path id="path2928_1_" class="st1" d="M-7.1,40.5c0,0.4,0,0.8,0,1.3c0,14.5,11.8,26.3,26.3,26.3s26.3-11.8,26.3-26.3
					c0-0.4,0-0.8,0-1.3c-0.7,13.9-12.2,24.9-26.2,24.9S-6.4,54.4-7.1,40.5z" />
					<path id="path2930_1_" class="st2" d="M-7.1,41.8c0-0.4,0-0.8,0-1.3c0-14.5,11.8-26.3,26.3-26.3c14.5,0,26.3,11.8,26.3,26.3
					c0,0.4,0,0.8,0,1.3c-0.7-13.9-12.2-24.9-26.2-24.9S-6.4,27.9-7.1,41.8z" />
				</g>
			</g>
			<g id="g2922_2_" transform="translate(-96.62518,464.1788)">

				<path id="path2924_2_" sodipodi:cx="114.28571" sodipodi:cy="218.07646" sodipodi:rx="42.857143" sodipodi:ry="42.857143" sodipodi:type="arc" class="st3" d="
				M241.9,200c8.3,14.4,3.4,32.9-11,41.2c-14.4,8.3-32.9,3.4-41.2-11c0,0,0,0,0,0c-8.3-14.4-3.4-32.9,11-41.2
				C215.1,180.6,233.6,185.5,241.9,200C241.9,200,241.9,200,241.9,200z" />
				<g id="g2926_2_" transform="matrix(0.866025,-0.5,0.5,0.866025,246.7984,188.937)">
					<path id="path2928_4_" class="st1" d="M-66.1,6.5c0,0.4,0,0.8,0,1.3c0,14.5,11.8,26.3,26.3,26.3s26.3-11.8,26.3-26.3
					c0-0.4,0-0.8,0-1.3c-0.7,13.9-12.2,24.9-26.2,24.9C-53.9,31.4-65.4,20.3-66.1,6.5z" />
					<path id="path2930_4_" class="st2" d="M-66.1,7.8c0-0.4,0-0.8,0-1.3c0-14.5,11.8-26.3,26.3-26.3S-13.6-8-13.6,6.5
					c0,0.4,0,0.8,0,1.3c-0.7-13.9-12.2-24.9-26.2-24.9S-65.4-6.1-66.1,7.8z" />
				</g>
			</g>
			<g id="g2922_3_" transform="translate(-96.62518,464.1788)">

				<path id="path2924_3_" sodipodi:cx="114.28571" sodipodi:cy="218.07646" sodipodi:rx="42.857143" sodipodi:ry="42.857143" sodipodi:type="arc" class="st3" d="
				M310,129.6c8.3,14.4,3.4,32.9-11,41.2c-14.4,8.3-32.9,3.4-41.2-11c0,0,0,0,0,0c-8.3-14.4-3.4-32.9,11-41.2
				C283.2,110.2,301.7,115.2,310,129.6C310,129.6,310,129.6,310,129.6z" />
				<g id="g2926_3_" transform="matrix(0.866025,-0.5,0.5,0.866025,246.7984,188.937)">
					<path id="path2928_2_" class="st1" d="M28-20.4c0,0.4,0,0.8,0,1.3C28-4.6,39.7,7.1,54.2,7.1S80.5-4.6,80.5-19.1
					c0-0.4,0-0.8,0-1.3C79.8-6.5,68.3,4.5,54.2,4.5S28.7-6.5,28-20.4z" />
					<path id="path2930_2_" class="st2" d="M28-19.1c0-0.4,0-0.8,0-1.3c0-14.5,11.8-26.3,26.3-26.3s26.3,11.8,26.3,26.3
					c0,0.4,0,0.8,0,1.3C79.8-33,68.3-44,54.2-44S28.7-33,28-19.1z" />
				</g>
			</g>
			<g id="g2922_4_" transform="translate(-96.62518,464.1788)">

				<path id="path2924_4_" sodipodi:cx="114.28571" sodipodi:cy="218.07646" sodipodi:rx="42.857143" sodipodi:ry="42.857143" sodipodi:type="arc" class="st3" d="
				M377.6,60.3c8.3,14.4,3.4,32.9-11,41.2c-14.4,8.3-32.9,3.4-41.2-11c0,0,0,0,0,0c-8.3-14.4-3.4-32.9,11-41.2
				S369.2,45.8,377.6,60.3C377.5,60.3,377.5,60.3,377.6,60.3z" />
				<g id="g2926_4_" transform="matrix(0.866025,-0.5,0.5,0.866025,246.7984,188.937)">
					<path id="path2928_7_" class="st1" d="M121.2-46.7c0,0.4,0,0.8,0,1.3c0,14.5,11.8,26.3,26.3,26.3s26.3-11.8,26.3-26.3
					c0-0.4,0-0.8,0-1.3c-0.7,13.9-12.2,24.9-26.2,24.9S121.9-32.8,121.2-46.7z" />
					<path id="path2930_7_" class="st2" d="M121.2-45.4c0-0.4,0-0.8,0-1.3c0-14.5,11.8-26.3,26.3-26.3s26.3,11.8,26.3,26.3
					c0,0.4,0,0.8,0,1.3c-0.7-13.9-12.2-24.9-26.2-24.9S121.9-59.3,121.2-45.4z" />
				</g>
			</g>
			<g id="g2922_5_" transform="translate(-96.62518,464.1788)">

				<path id="path2924_5_" sodipodi:cx="114.28571" sodipodi:cy="218.07646" sodipodi:rx="42.857143" sodipodi:ry="42.857143" sodipodi:type="arc" class="st3" d="
				M447.1,130.2c8.3,14.4,3.4,32.9-11,41.2c-14.4,8.3-32.9,3.4-41.2-11c0,0,0,0,0,0c-8.3-14.4-3.4-32.9,11-41.2
				S438.8,115.8,447.1,130.2C447.1,130.2,447.1,130.2,447.1,130.2z" />
				<g id="g2926_5_" transform="matrix(0.866025,-0.5,0.5,0.866025,246.7984,188.937)">
					<path id="path2928_9_" class="st1" d="M146.5,48.7c0,0.4,0,0.8,0,1.3c0,14.5,11.8,26.3,26.3,26.3s26.3-11.8,26.3-26.3
					c0-0.4,0-0.8,0-1.3c-0.7,13.9-12.2,24.9-26.2,24.9S147.2,62.5,146.5,48.7z" />
					<path id="path2930_9_" class="st2" d="M146.5,49.9c0-0.4,0-0.8,0-1.3c0-14.5,11.8-26.3,26.3-26.3c14.5,0,26.3,11.8,26.3,26.3
					c0,0.4,0,0.8,0,1.3C198.2,36.1,186.7,25,172.7,25C158.6,25,147.2,36.1,146.5,49.9z" />
				</g>
			</g>
			<g id="g2922_6_" transform="translate(-96.62518,464.1788)">

				<path id="path2924_6_" sodipodi:cx="114.28571" sodipodi:cy="218.07646" sodipodi:rx="42.857143" sodipodi:ry="42.857143" sodipodi:type="arc" class="st3" d="
				M446.6,198.7c8.3,14.4,3.4,32.9-11,41.2c-14.4,8.3-32.9,3.4-41.2-11c0,0,0,0,0,0c-8.3-14.4-3.4-32.9,11-41.2
				S438.2,184.2,446.6,198.7C446.6,198.6,446.6,198.7,446.6,198.7z" />
				<g id="g2926_6_" transform="matrix(0.866025,-0.5,0.5,0.866025,246.7984,188.937)">
					<path id="path2928_11_" class="st1" d="M111.8,107.7c0,0.4,0,0.8,0,1.3c0,14.5,11.8,26.3,26.3,26.3s26.3-11.8,26.3-26.3
					c0-0.4,0-0.8,0-1.3c-0.7,13.9-12.2,24.9-26.2,24.9S112.5,121.5,111.8,107.7z" />
					<path id="path2930_11_" class="st2" d="M111.8,108.9c0-0.4,0-0.8,0-1.3c0-14.5,11.8-26.3,26.3-26.3s26.3,11.8,26.3,26.3
					c0,0.4,0,0.8,0,1.3C163.5,95.1,152,84,138,84S112.5,95.1,111.8,108.9z" />
				</g>
			</g>
			<g id="g2922_7_" transform="translate(-96.62518,464.1788)">

				<path id="path2924_7_" sodipodi:cx="114.28571" sodipodi:cy="218.07646" sodipodi:rx="42.857143" sodipodi:ry="42.857143" sodipodi:type="arc" class="st3" d="
				M445.1,268.7c8.3,14.4,3.4,32.9-11,41.2c-14.4,8.3-32.9,3.4-41.2-11c0,0,0,0,0,0c-8.3-14.4-3.4-32.9,11-41.2
				C418.3,249.3,436.7,254.2,445.1,268.7C445.1,268.7,445.1,268.7,445.1,268.7z" />
				<g id="g2926_7_" transform="matrix(0.866025,-0.5,0.5,0.866025,246.7984,188.937)">
					<path id="path2928_13_" class="st1" d="M75.5,167.6c0,0.4,0,0.8,0,1.3c0,14.5,11.8,26.3,26.3,26.3s26.3-11.8,26.3-26.3
					c0-0.4,0-0.8,0-1.3c-0.7,13.9-12.2,24.9-26.2,24.9S76.2,181.4,75.5,167.6z" />
					<path id="path2930_13_" class="st2" d="M75.5,168.9c0-0.4,0-0.8,0-1.3c0-14.5,11.8-26.3,26.3-26.3s26.3,11.8,26.3,26.3
					c0,0.4,0,0.8,0,1.3c-0.7-13.9-12.2-24.9-26.2-24.9S76.2,155,75.5,168.9z" />
				</g>
			</g>
			<g id="g2922_8_" transform="translate(-96.62518,464.1788)">

				<path id="path2924_8_" sodipodi:cx="114.28571" sodipodi:cy="218.07646" sodipodi:rx="42.857143" sodipodi:ry="42.857143" sodipodi:type="arc" class="st3" d="
				M446.6,338.6c8.3,14.4,3.4,32.9-11,41.2c-14.4,8.3-32.9,3.4-41.2-11c0,0,0,0,0,0c-8.3-14.4-3.4-32.9,11-41.2
				C419.8,319.2,438.2,324.1,446.6,338.6C446.6,338.6,446.6,338.6,446.6,338.6z" />
				<g id="g2926_8_" transform="matrix(0.866025,-0.5,0.5,0.866025,246.7984,188.937)">
					<path id="path2928_15_" class="st1" d="M41.8,228.9c0,0.4,0,0.8,0,1.3c0,14.5,11.8,26.3,26.3,26.3s26.3-11.8,26.3-26.3
					c0-0.4,0-0.8,0-1.3c-0.7,13.9-12.2,24.9-26.2,24.9S42.5,242.7,41.8,228.9z" />
					<path id="path2930_15_" class="st2" d="M41.8,230.1c0-0.4,0-0.8,0-1.3c0-14.5,11.8-26.3,26.3-26.3s26.3,11.8,26.3,26.3
					c0,0.4,0,0.8,0,1.3c-0.7-13.9-12.2-24.9-26.2-24.9S42.5,216.3,41.8,230.1z" />
				</g>
			</g>
			<g id="g2643" transform="matrix(0.966735,0,0,0.97851,-4.860715,36.75614)">
				<path id="rect2344" class="st4" d="M14.6,842.8V406.3h507.6v436.5H14.6z M55.8,827.9c0.1,0,0.1,0,0.2,0c0.3,0,0.6,0,1,0
				c16.7,0,30.2-13.5,30.2-30.2S73.6,767.5,57,767.5S26.8,781,26.8,797.7C26.8,814,39.7,827.2,55.8,827.9z M126.7,827.9
				c0.1,0,0.1,0,0.2,0c0.3,0,0.6,0,1,0c16.7,0,30.2-13.5,30.2-30.2s-13.5-30.2-30.2-30.2S97.7,781,97.7,797.7
				C97.7,814,110.6,827.2,126.7,827.9z M197.6,827.9c0.1,0,0.1,0,0.2,0c0.3,0,0.6,0,1,0c16.7,0,30.2-13.5,30.2-30.2
				s-13.5-30.2-30.2-30.2s-30.2,13.5-30.2,30.2C168.6,814,181.5,827.2,197.6,827.9z M268.5,827.9c0.1,0,0.1,0,0.2,0c0.3,0,0.6,0,1,0
				c16.7,0,30.2-13.5,30.2-30.2s-13.5-30.2-30.2-30.2s-30.2,13.5-30.2,30.2C239.4,814,252.3,827.2,268.5,827.9z M339.3,827.9
				c0.1,0,0.1,0,0.2,0c0.3,0,0.7,0,1,0c16.7,0,30.2-13.5,30.2-30.2s-13.5-30.2-30.2-30.2c-16.7,0-30.2,13.5-30.2,30.2
				C310.3,814,323.2,827.2,339.3,827.9z M410.2,827.9c0.1,0,0.1,0,0.2,0c0.3,0,0.6,0,1,0c16.7,0,30.2-13.5,30.2-30.2
				s-13.5-30.2-30.2-30.2c-16.7,0-30.2,13.5-30.2,30.2C381.2,814,394.1,827.2,410.2,827.9z M481.1,827.9c0.1,0,0.1,0,0.2,0
				c0.3,0,0.6,0,1,0c16.7,0,30.2-13.5,30.2-30.2s-13.5-30.2-30.2-30.2c-16.7,0-30.2,13.5-30.2,30.2C452.1,814,465,827.2,481.1,827.9
				z M55.8,757c0.1,0,0.1,0,0.2,0c0.3,0,0.6,0,1,0c16.7,0,30.2-13.5,30.2-30.2c0-16.7-13.5-30.2-30.2-30.2s-30.2,13.5-30.2,30.2
				C26.8,743.1,39.7,756.4,55.8,757z M126.7,757c0.1,0,0.1,0,0.2,0c0.3,0,0.6,0,1,0c16.7,0,30.2-13.5,30.2-30.2
				c0-16.7-13.5-30.2-30.2-30.2s-30.2,13.5-30.2,30.2C97.7,743.1,110.6,756.4,126.7,757z M197.6,757c0.1,0,0.1,0,0.2,0
				c0.3,0,0.6,0,1,0c16.7,0,30.2-13.5,30.2-30.2c0-16.7-13.5-30.2-30.2-30.2s-30.2,13.5-30.2,30.2
				C168.6,743.1,181.5,756.4,197.6,757z M268.5,757c0.1,0,0.1,0,0.2,0c0.3,0,0.6,0,1,0c16.7,0,30.2-13.5,30.2-30.2
				c0-16.7-13.5-30.2-30.2-30.2s-30.2,13.5-30.2,30.2C239.4,743.1,252.3,756.4,268.5,757z M339.3,757c0.1,0,0.1,0,0.2,0
				c0.3,0,0.7,0,1,0c16.7,0,30.2-13.5,30.2-30.2c0-16.7-13.5-30.2-30.2-30.2c-16.7,0-30.2,13.5-30.2,30.2
				C310.3,743.1,323.2,756.4,339.3,757z M410.2,757c0.1,0,0.1,0,0.2,0c0.3,0,0.6,0,1,0c16.7,0,30.2-13.5,30.2-30.2
				c0-16.7-13.5-30.2-30.2-30.2c-16.7,0-30.2,13.5-30.2,30.2C381.2,743.1,394.1,756.4,410.2,757z M481.1,757c0.1,0,0.1,0,0.2,0
				c0.3,0,0.6,0,1,0c16.7,0,30.2-13.5,30.2-30.2c0-16.7-13.5-30.2-30.2-30.2c-16.7,0-30.2,13.5-30.2,30.2
				C452.1,743.1,465,756.4,481.1,757z M56.2,686.1c0.2,0,0.4,0,0.6,0c0.1,0,0.1,0,0.2,0c16.7,0,30.2-13.5,30.2-30.2
				c0-16.7-13.5-30.2-30.2-30.2s-30.2,13.5-30.2,30.2C26.8,672.3,39.9,685.7,56.2,686.1z M127.1,686.1c0.2,0,0.4,0,0.6,0
				c0.1,0,0.1,0,0.2,0c16.7,0,30.2-13.5,30.2-30.2c0-16.7-13.5-30.2-30.2-30.2s-30.2,13.5-30.2,30.2
				C97.7,672.3,110.8,685.7,127.1,686.1z M198,686.1c0.2,0,0.4,0,0.6,0c0.1,0,0.1,0,0.2,0c16.7,0,30.2-13.5,30.2-30.2
				c0-16.7-13.5-30.2-30.2-30.2s-30.2,13.5-30.2,30.2C168.6,672.3,181.7,685.7,198,686.1z M268.9,686.1c0.2,0,0.4,0,0.6,0
				c0.1,0,0.1,0,0.2,0c16.7,0,30.2-13.5,30.2-30.2c0-16.7-13.5-30.2-30.2-30.2s-30.2,13.5-30.2,30.2
				C239.4,672.3,252.6,685.7,268.9,686.1z M339.7,686.1c0.2,0,0.4,0,0.6,0c0.1,0,0.1,0,0.2,0c16.7,0,30.2-13.5,30.2-30.2
				c0-16.7-13.5-30.2-30.2-30.2c-16.7,0-30.2,13.5-30.2,30.2C310.3,672.3,323.5,685.7,339.7,686.1z M410.6,686.1c0.2,0,0.4,0,0.6,0
				c0.1,0,0.1,0,0.2,0c16.7,0,30.2-13.5,30.2-30.2c0-16.7-13.5-30.2-30.2-30.2c-16.7,0-30.2,13.5-30.2,30.2
				C381.2,672.3,394.3,685.7,410.6,686.1z M481.5,686.1c0.2,0,0.4,0,0.6,0c0.1,0,0.1,0,0.2,0c16.7,0,30.2-13.5,30.2-30.2
				c0-16.7-13.5-30.2-30.2-30.2c-16.7,0-30.2,13.5-30.2,30.2C452.1,672.3,465.2,685.7,481.5,686.1z M56.2,615.2c0.1,0,0.3,0,0.4,0
				c0.1,0,0.3,0,0.4,0c16.7,0,30.2-13.5,30.2-30.2c0-16.7-13.5-30.2-30.2-30.2S26.8,568.4,26.8,585
				C26.8,601.4,39.9,614.8,56.2,615.2z M127.1,615.2c0.1,0,0.3,0,0.4,0c0.1,0,0.3,0,0.4,0c16.7,0,30.2-13.5,30.2-30.2
				c0-16.7-13.5-30.2-30.2-30.2S97.7,568.4,97.7,585C97.7,601.4,110.8,614.8,127.1,615.2z M197.9,615.2c0.1,0,0.3,0,0.4,0
				c0.1,0,0.3,0,0.4,0c16.7,0,30.2-13.5,30.2-30.2c0-16.7-13.5-30.2-30.2-30.2s-30.2,13.5-30.2,30.2
				C168.6,601.4,181.7,614.8,197.9,615.2z M268.8,615.2c0.1,0,0.3,0,0.4,0c0.1,0,0.3,0,0.4,0c16.7,0,30.2-13.5,30.2-30.2
				c0-16.7-13.5-30.2-30.2-30.2s-30.2,13.5-30.2,30.2C239.4,601.4,252.5,614.8,268.8,615.2z M339.7,615.2c0.1,0,0.3,0,0.4,0
				c0.1,0,0.3,0,0.4,0c16.7,0,30.2-13.5,30.2-30.2c0-16.7-13.5-30.2-30.2-30.2c-16.7,0-30.2,13.5-30.2,30.2
				C310.3,601.4,323.4,614.8,339.7,615.2z M410.6,615.2c0.1,0,0.3,0,0.4,0c0.1,0,0.2,0,0.4,0c16.7,0,30.2-13.5,30.2-30.2
				c0-16.7-13.5-30.2-30.2-30.2c-16.7,0-30.2,13.5-30.2,30.2C381.2,601.4,394.3,614.8,410.6,615.2z M481.5,615.2c0.1,0,0.3,0,0.4,0
				c0.1,0,0.2,0,0.4,0c16.7,0,30.2-13.5,30.2-30.2c0-16.7-13.5-30.2-30.2-30.2c-16.7,0-30.2,13.5-30.2,30.2
				C452.1,601.4,465.2,614.8,481.5,615.2z M56,544.3c0.1,0,0.2,0,0.4,0c0.2,0,0.4,0,0.6,0c16.7,0,30.2-13.5,30.2-30.2
				c0-16.7-13.5-30.2-30.2-30.2s-30.2,13.5-30.2,30.2C26.8,530.5,39.8,543.8,56,544.3z M126.9,544.3c0.1,0,0.2,0,0.4,0
				c0.2,0,0.4,0,0.6,0c16.7,0,30.2-13.5,30.2-30.2c0-16.7-13.5-30.2-30.2-30.2s-30.2,13.5-30.2,30.2
				C97.7,530.5,110.7,543.8,126.9,544.3z M197.8,544.3c0.1,0,0.2,0,0.4,0c0.2,0,0.4,0,0.6,0c16.7,0,30.2-13.5,30.2-30.2
				c0-16.7-13.5-30.2-30.2-30.2s-30.2,13.5-30.2,30.2C168.6,530.5,181.6,543.8,197.8,544.3z M268.7,544.3c0.1,0,0.2,0,0.4,0
				c0.2,0,0.4,0,0.6,0c16.7,0,30.2-13.5,30.2-30.2c0-16.7-13.5-30.2-30.2-30.2s-30.2,13.5-30.2,30.2
				C239.4,530.5,252.5,543.8,268.7,544.3z M339.5,544.3c0.1,0,0.2,0,0.4,0c0.2,0,0.4,0,0.6,0c16.7,0,30.2-13.5,30.2-30.2
				c0-16.7-13.5-30.2-30.2-30.2c-16.7,0-30.2,13.5-30.2,30.2C310.3,530.5,323.3,543.8,339.5,544.3z M410.4,544.3c0.1,0,0.2,0,0.4,0
				c0.2,0,0.4,0,0.6,0c16.7,0,30.2-13.5,30.2-30.2c0-16.7-13.5-30.2-30.2-30.2c-16.7,0-30.2,13.5-30.2,30.2
				C381.2,530.5,394.2,543.8,410.4,544.3z M481.3,544.3c0.1,0,0.2,0,0.4,0c0.2,0,0.4,0,0.6,0c16.7,0,30.2-13.5,30.2-30.2
				c0-16.7-13.5-30.2-30.2-30.2c-16.7,0-30.2,13.5-30.2,30.2C452.1,530.5,465.1,543.8,481.3,544.3z M56,473.4c0.1,0,0.1,0,0.2,0
				c0.3,0,0.5,0,0.8,0c16.7,0,30.2-13.5,30.2-30.2c0-16.7-13.5-30.2-30.2-30.2s-30.2,13.5-30.2,30.2C26.8,459.6,39.8,472.9,56,473.4
				z M126.9,473.4c0.1,0,0.1,0,0.2,0c0.3,0,0.5,0,0.8,0c16.7,0,30.2-13.5,30.2-30.2c0-16.7-13.5-30.2-30.2-30.2
				s-30.2,13.5-30.2,30.2C97.7,459.6,110.7,472.9,126.9,473.4z M197.7,473.4c0.1,0,0.1,0,0.2,0c0.3,0,0.5,0,0.8,0
				c16.7,0,30.2-13.5,30.2-30.2c0-16.7-13.5-30.2-30.2-30.2s-30.2,13.5-30.2,30.2C168.6,459.6,181.5,472.9,197.7,473.4z
				 M268.6,473.4c0.1,0,0.1,0,0.2,0c0.3,0,0.5,0,0.8,0c16.7,0,30.2-13.5,30.2-30.2c0-16.7-13.5-30.2-30.2-30.2s-30.2,13.5-30.2,30.2
				C239.4,459.6,252.4,472.9,268.6,473.4z M339.5,473.4c0.1,0,0.1,0,0.2,0c0.3,0,0.5,0,0.8,0c16.7,0,30.2-13.5,30.2-30.2
				c0-16.7-13.5-30.2-30.2-30.2c-16.7,0-30.2,13.5-30.2,30.2C310.3,459.6,323.3,472.9,339.5,473.4z M410.4,473.4c0.1,0,0.1,0,0.2,0
				c0.3,0,0.5,0,0.8,0c16.7,0,30.2-13.5,30.2-30.2c0-16.7-13.5-30.2-30.2-30.2c-16.7,0-30.2,13.5-30.2,30.2
				C381.2,459.6,394.2,472.9,410.4,473.4z M481.3,473.4c0.1,0,0.1,0,0.2,0c0.3,0,0.5,0,0.8,0c16.7,0,30.2-13.5,30.2-30.2
				c0-16.7-13.5-30.2-30.2-30.2c-16.7,0-30.2,13.5-30.2,30.2C452.1,459.6,465.1,472.9,481.3,473.4z" />
				<g id="g2400" transform="translate(0,403.6854)">
					<g id="g2360" transform="matrix(-1,1.110223e-16,-1.110223e-16,-1,652.1114,920.2434)">
						<path id="path2354" class="st5" d="M209.6,613.6c0.3,0.5,0.5,1,0.8,1.5c9.8,16.8,31.4,22.6,48.3,12.9
						c16.9-9.7,22.7-31.3,12.9-48.1c-0.3-0.5-0.6-1-0.9-1.5c8.5,16.6,2.6,37.1-13.8,46.5S219.8,629.2,209.6,613.6z" />
						<path id="path2356" class="st6" d="M210.5,615.1c-0.3-0.5-0.6-1-0.9-1.5c-9.8-16.8-4-38.4,12.9-48.1
						c16.9-9.7,38.5-3.9,48.3,12.9c0.3,0.5,0.5,1,0.8,1.5c-10.2-15.6-31-20.8-47.3-11.4C207.9,578,202,598.5,210.5,615.1z" />
					</g>
					<g id="g2364" transform="matrix(-1,1.110223e-16,-1.110223e-16,-1,551.3262,920.2434)">
						<path id="path2366" class="st5" d="M179.8,613.6c0.3,0.5,0.5,1,0.8,1.5c9.8,16.8,31.4,22.6,48.3,12.9
						c16.9-9.7,22.7-31.3,12.9-48.1c-0.3-0.5-0.6-1-0.9-1.5c8.5,16.6,2.6,37.1-13.8,46.5S189.9,629.2,179.8,613.6z" />
						<path id="path2368" class="st6" d="M180.6,615.1c-0.3-0.5-0.6-1-0.9-1.5c-9.8-16.8-4-38.4,12.9-48.1
						c16.9-9.7,38.5-3.9,48.3,12.9c0.3,0.5,0.5,1,0.8,1.5c-10.2-15.6-31-20.8-47.3-11.4C178.1,578,172.1,598.5,180.6,615.1z" />
					</g>
					<g id="g2370" transform="matrix(-1,1.110223e-16,-1.110223e-16,-1,450.541,920.2434)">
						<path id="path2372" class="st5" d="M149.9,613.6c0.3,0.5,0.5,1,0.8,1.5c9.8,16.8,31.4,22.6,48.3,12.9
						c16.9-9.7,22.7-31.3,12.9-48.1c-0.3-0.5-0.6-1-0.9-1.5c8.5,16.6,2.6,37.1-13.8,46.5S160.1,629.2,149.9,613.6z" />
						<path id="path2374" class="st6" d="M150.8,615.1c-0.3-0.5-0.6-1-0.9-1.5c-9.8-16.8-4-38.4,12.9-48.1
						c16.9-9.7,38.5-3.9,48.3,12.9c0.3,0.5,0.5,1,0.8,1.5c-10.2-15.6-31-20.8-47.3-11.4C148.2,578,142.3,598.5,150.8,615.1z" />
					</g>
					<g id="g2376" transform="matrix(-1,1.110223e-16,-1.110223e-16,-1,349.7558,920.2434)">
						<path id="path2378" class="st5" d="M120.1,613.6c0.3,0.5,0.5,1,0.8,1.5c9.8,16.8,31.4,22.6,48.3,12.9
						c16.9-9.7,22.7-31.3,12.9-48.1c-0.3-0.5-0.6-1-0.9-1.5c8.5,16.6,2.6,37.1-13.8,46.5S130.2,629.2,120.1,613.6z" />
						<path id="path2380" class="st6" d="M120.9,615.1c-0.3-0.5-0.6-1-0.9-1.5c-9.8-16.8-4-38.4,12.9-48.1
						c16.9-9.7,38.5-3.9,48.3,12.9c0.3,0.5,0.5,1,0.8,1.5c-10.2-15.6-31-20.8-47.3-11.4C118.4,578,112.4,598.5,120.9,615.1z" />
					</g>
					<g id="g2382" transform="matrix(-1,1.110223e-16,-1.110223e-16,-1,248.9706,920.2434)">
						<path id="path2384" class="st5" d="M90.2,613.6c0.3,0.5,0.5,1,0.8,1.5c9.8,16.8,31.4,22.6,48.3,12.9
						c16.9-9.7,22.7-31.3,12.9-48.1c-0.3-0.5-0.6-1-0.9-1.5c8.5,16.6,2.6,37.1-13.8,46.5S100.4,629.2,90.2,613.6z" />
						<path id="path2386" class="st6" d="M91.1,615.1c-0.3-0.5-0.6-1-0.9-1.5c-9.8-16.8-4-38.4,12.9-48.1
						c16.9-9.7,38.5-3.9,48.3,12.9c0.3,0.5,0.5,1,0.8,1.5c-10.2-15.6-31-20.8-47.3-11.4C88.5,578,82.6,598.5,91.1,615.1z" />
					</g>
					<g id="g2388" transform="matrix(-1,1.110223e-16,-1.110223e-16,-1,148.1854,920.2434)">
						<path id="path2390" class="st5" d="M60.4,613.6c0.3,0.5,0.5,1,0.8,1.5c9.8,16.8,31.4,22.6,48.3,12.9
						c16.9-9.7,22.7-31.3,12.9-48.1c-0.3-0.5-0.6-1-0.9-1.5c8.5,16.6,2.6,37.1-13.8,46.5S70.5,629.2,60.4,613.6z" />
						<path id="path2392" class="st6" d="M61.2,615.1c-0.3-0.5-0.6-1-0.9-1.5c-9.8-16.8-4-38.4,12.9-48.1
						c16.9-9.7,38.5-3.9,48.3,12.9c0.3,0.5,0.5,1,0.8,1.5c-10.2-15.6-31-20.8-47.3-11.4C58.7,578,52.7,598.5,61.2,615.1z" />
					</g>
					<g id="g2394" transform="matrix(-1,1.110223e-16,-1.110223e-16,-1,752.8966,920.2434)">
						<path id="path2396" class="st5" d="M239.5,613.6c0.3,0.5,0.5,1,0.8,1.5c9.8,16.8,31.4,22.6,48.3,12.9
						c16.9-9.7,22.7-31.3,12.9-48.1c-0.3-0.5-0.6-1-0.9-1.5c8.5,16.6,2.6,37.1-13.8,46.5C270.4,634.4,249.6,629.2,239.5,613.6z" />
						<path id="path2398" class="st6" d="M240.3,615.1c-0.3-0.5-0.6-1-0.9-1.5c-9.8-16.8-4-38.4,12.9-48.1
						c16.9-9.7,38.5-3.9,48.3,12.9c0.3,0.5,0.5,1,0.8,1.5c-10.2-15.6-31-20.8-47.3-11.4C237.8,578,231.8,598.5,240.3,615.1z" />
					</g>
				</g>
				<g id="g2423" transform="translate(0,302.7641)">
					<g id="g2425" transform="matrix(-1,1.110223e-16,-1.110223e-16,-1,652.1114,920.2434)">
						<path id="path2427" class="st5" d="M209.6,583.7c0.3,0.5,0.5,1,0.8,1.5c9.8,16.8,31.4,22.6,48.3,12.9
						c16.9-9.7,22.7-31.3,12.9-48.1c-0.3-0.5-0.6-1-0.9-1.5c8.5,16.6,2.6,37.1-13.8,46.5C240.6,604.5,219.8,599.3,209.6,583.7z" />
						<path id="path2429" class="st6" d="M210.5,585.2c-0.3-0.5-0.6-1-0.9-1.5c-9.8-16.8-4-38.4,12.9-48.1
						c16.9-9.7,38.5-3.9,48.3,12.9c0.3,0.5,0.5,1,0.8,1.5c-10.2-15.6-31-20.8-47.3-11.4S202,568.6,210.5,585.2z" />
					</g>
					<g id="g2431" transform="matrix(-1,1.110223e-16,-1.110223e-16,-1,551.3262,920.2434)">
						<path id="path2433" class="st5" d="M179.8,583.7c0.3,0.5,0.5,1,0.8,1.5c9.8,16.8,31.4,22.6,48.3,12.9
						c16.9-9.7,22.7-31.3,12.9-48.1c-0.3-0.5-0.6-1-0.9-1.5c8.5,16.6,2.6,37.1-13.8,46.5C210.7,604.5,189.9,599.3,179.8,583.7z" />
						<path id="path2435" class="st6" d="M180.6,585.2c-0.3-0.5-0.6-1-0.9-1.5c-9.8-16.8-4-38.4,12.9-48.1
						c16.9-9.7,38.5-3.9,48.3,12.9c0.3,0.5,0.5,1,0.8,1.5c-10.2-15.6-31-20.8-47.3-11.4S172.1,568.6,180.6,585.2z" />
					</g>
					<g id="g2437" transform="matrix(-1,1.110223e-16,-1.110223e-16,-1,450.541,920.2434)">
						<path id="path2439" class="st5" d="M149.9,583.7c0.3,0.5,0.5,1,0.8,1.5c9.8,16.8,31.4,22.6,48.3,12.9
						c16.9-9.7,22.7-31.3,12.9-48.1c-0.3-0.5-0.6-1-0.9-1.5c8.5,16.6,2.6,37.1-13.8,46.5C180.9,604.5,160.1,599.3,149.9,583.7z" />
						<path id="path2441" class="st6" d="M150.8,585.2c-0.3-0.5-0.6-1-0.9-1.5c-9.8-16.8-4-38.4,12.9-48.1
						c16.9-9.7,38.5-3.9,48.3,12.9c0.3,0.5,0.5,1,0.8,1.5c-10.2-15.6-31-20.8-47.3-11.4S142.3,568.6,150.8,585.2z" />
					</g>
					<g id="g2443" transform="matrix(-1,1.110223e-16,-1.110223e-16,-1,349.7558,920.2434)">
						<path id="path2445" class="st5" d="M120.1,583.7c0.3,0.5,0.5,1,0.8,1.5c9.8,16.8,31.4,22.6,48.3,12.9
						c16.9-9.7,22.7-31.3,12.9-48.1c-0.3-0.5-0.6-1-0.9-1.5c8.5,16.6,2.6,37.1-13.8,46.5C151,604.5,130.2,599.3,120.1,583.7z" />
						<path id="path2447" class="st6" d="M120.9,585.2c-0.3-0.5-0.6-1-0.9-1.5c-9.8-16.8-4-38.4,12.9-48.1
						c16.9-9.7,38.5-3.9,48.3,12.9c0.3,0.5,0.5,1,0.8,1.5c-10.2-15.6-31-20.8-47.3-11.4C118.4,548.1,112.4,568.6,120.9,585.2z" />
					</g>
					<g id="g2449" transform="matrix(-1,1.110223e-16,-1.110223e-16,-1,248.9706,920.2434)">
						<path id="path2451" class="st5" d="M90.2,583.7c0.3,0.5,0.5,1,0.8,1.5c9.8,16.8,31.4,22.6,48.3,12.9
						c16.9-9.7,22.7-31.3,12.9-48.1c-0.3-0.5-0.6-1-0.9-1.5c8.5,16.6,2.6,37.1-13.8,46.5C121.2,604.5,100.4,599.3,90.2,583.7z" />
						<path id="path2453" class="st6" d="M91.1,585.2c-0.3-0.5-0.6-1-0.9-1.5c-9.8-16.8-4-38.4,12.9-48.1
						c16.9-9.7,38.5-3.9,48.3,12.9c0.3,0.5,0.5,1,0.8,1.5c-10.2-15.6-31-20.8-47.3-11.4S82.6,568.6,91.1,585.2z" />
					</g>
					<g id="g2455" transform="matrix(-1,1.110223e-16,-1.110223e-16,-1,148.1854,920.2434)">
						<path id="path2457" class="st5" d="M60.4,583.7c0.3,0.5,0.5,1,0.8,1.5c9.8,16.8,31.4,22.6,48.3,12.9
						c16.9-9.7,22.7-31.3,12.9-48.1c-0.3-0.5-0.6-1-0.9-1.5c8.5,16.6,2.6,37.1-13.8,46.5C91.3,604.5,70.5,599.3,60.4,583.7z" />
						<path id="path2459" class="st6" d="M61.2,585.2c-0.3-0.5-0.6-1-0.9-1.5c-9.8-16.8-4-38.4,12.9-48.1
						c16.9-9.7,38.5-3.9,48.3,12.9c0.3,0.5,0.5,1,0.8,1.5c-10.2-15.6-31-20.8-47.3-11.4S52.7,568.6,61.2,585.2z" />
					</g>
					<g id="g2461" transform="matrix(-1,1.110223e-16,-1.110223e-16,-1,752.8966,920.2434)">
						<path id="path2463" class="st5" d="M239.5,583.7c0.3,0.5,0.5,1,0.8,1.5c9.8,16.8,31.4,22.6,48.3,12.9
						c16.9-9.7,22.7-31.3,12.9-48.1c-0.3-0.5-0.6-1-0.9-1.5c8.5,16.6,2.6,37.1-13.8,46.5C270.4,604.5,249.6,599.3,239.5,583.7z" />
						<path id="path2465" class="st6" d="M240.3,585.2c-0.3-0.5-0.6-1-0.9-1.5c-9.8-16.8-4-38.4,12.9-48.1
						c16.9-9.7,38.5-3.9,48.3,12.9c0.3,0.5,0.5,1,0.8,1.5c-10.2-15.6-31-20.8-47.3-11.4S231.8,568.6,240.3,585.2z" />
					</g>
				</g>
				<g id="g2467" transform="translate(0,201.8427)">
					<g id="g2469" transform="matrix(-1,1.110223e-16,-1.110223e-16,-1,652.1114,920.2434)">
						<path id="path2471" class="st5" d="M209.6,553.8c0.3,0.5,0.5,1,0.8,1.5c9.8,16.8,31.4,22.6,48.3,12.9
						c16.9-9.7,22.7-31.3,12.9-48.1c-0.3-0.5-0.6-1-0.9-1.5c8.5,16.6,2.6,37.1-13.8,46.5S219.8,569.4,209.6,553.8z" />
						<path id="path2473" class="st6" d="M210.5,555.3c-0.3-0.5-0.6-1-0.9-1.5c-9.8-16.8-4-38.4,12.9-48.1s38.5-3.9,48.3,12.9
						c0.3,0.5,0.5,1,0.8,1.5c-10.2-15.6-31-20.8-47.3-11.4C207.9,518.2,202,538.7,210.5,555.3z" />
					</g>
					<g id="g2475" transform="matrix(-1,1.110223e-16,-1.110223e-16,-1,551.3262,920.2434)">
						<path id="path2477" class="st5" d="M179.8,553.8c0.3,0.5,0.5,1,0.8,1.5c9.8,16.8,31.4,22.6,48.3,12.9
						c16.9-9.7,22.7-31.3,12.9-48.1c-0.3-0.5-0.6-1-0.9-1.5c8.5,16.6,2.6,37.1-13.8,46.5S189.9,569.4,179.8,553.8z" />
						<path id="path2479" class="st6" d="M180.6,555.3c-0.3-0.5-0.6-1-0.9-1.5c-9.8-16.8-4-38.4,12.9-48.1s38.5-3.9,48.3,12.9
						c0.3,0.5,0.5,1,0.8,1.5c-10.2-15.6-31-20.8-47.3-11.4C178.1,518.2,172.1,538.7,180.6,555.3z" />
					</g>
					<g id="g2481" transform="matrix(-1,1.110223e-16,-1.110223e-16,-1,450.541,920.2434)">
						<path id="path2483" class="st5" d="M149.9,553.8c0.3,0.5,0.5,1,0.8,1.5c9.8,16.8,31.4,22.6,48.3,12.9
						c16.9-9.7,22.7-31.3,12.9-48.1c-0.3-0.5-0.6-1-0.9-1.5c8.5,16.6,2.6,37.1-13.8,46.5S160.1,569.4,149.9,553.8z" />
						<path id="path2485" class="st6" d="M150.8,555.3c-0.3-0.5-0.6-1-0.9-1.5c-9.8-16.8-4-38.4,12.9-48.1s38.5-3.9,48.3,12.9
						c0.3,0.5,0.5,1,0.8,1.5c-10.2-15.6-31-20.8-47.3-11.4C148.2,518.2,142.3,538.7,150.8,555.3z" />
					</g>
					<g id="g2487" transform="matrix(-1,1.110223e-16,-1.110223e-16,-1,349.7558,920.2434)">
						<path id="path2489" class="st5" d="M120.1,553.8c0.3,0.5,0.5,1,0.8,1.5c9.8,16.8,31.4,22.6,48.3,12.9
						c16.9-9.7,22.7-31.3,12.9-48.1c-0.3-0.5-0.6-1-0.9-1.5c8.5,16.6,2.6,37.1-13.8,46.5S130.2,569.4,120.1,553.8z" />
						<path id="path2491" class="st6" d="M120.9,555.3c-0.3-0.5-0.6-1-0.9-1.5c-9.8-16.8-4-38.4,12.9-48.1s38.5-3.9,48.3,12.9
						c0.3,0.5,0.5,1,0.8,1.5c-10.2-15.6-31-20.8-47.3-11.4C118.4,518.2,112.4,538.7,120.9,555.3z" />
					</g>
					<g id="g2493" transform="matrix(-1,1.110223e-16,-1.110223e-16,-1,248.9706,920.2434)">
						<path id="path2495" class="st5" d="M90.2,553.8c0.3,0.5,0.5,1,0.8,1.5c9.8,16.8,31.4,22.6,48.3,12.9
						c16.9-9.7,22.7-31.3,12.9-48.1c-0.3-0.5-0.6-1-0.9-1.5c8.5,16.6,2.6,37.1-13.8,46.5S100.4,569.4,90.2,553.8z" />
						<path id="path2497" class="st6" d="M91.1,555.3c-0.3-0.5-0.6-1-0.9-1.5c-9.8-16.8-4-38.4,12.9-48.1s38.5-3.9,48.3,12.9
						c0.3,0.5,0.5,1,0.8,1.5c-10.2-15.6-31-20.8-47.3-11.4C88.5,518.2,82.6,538.7,91.1,555.3z" />
					</g>
					<g id="g2499" transform="matrix(-1,1.110223e-16,-1.110223e-16,-1,148.1854,920.2434)">
						<path id="path2501" class="st5" d="M60.4,553.8c0.3,0.5,0.5,1,0.8,1.5c9.8,16.8,31.4,22.6,48.3,12.9
						c16.9-9.7,22.7-31.3,12.9-48.1c-0.3-0.5-0.6-1-0.9-1.5c8.5,16.6,2.6,37.1-13.8,46.5S70.5,569.4,60.4,553.8z" />
						<path id="path2503" class="st6" d="M61.2,555.3c-0.3-0.5-0.6-1-0.9-1.5c-9.8-16.8-4-38.4,12.9-48.1s38.5-3.9,48.3,12.9
						c0.3,0.5,0.5,1,0.8,1.5c-10.2-15.6-31-20.8-47.3-11.4C58.7,518.2,52.7,538.7,61.2,555.3z" />
					</g>
					<g id="g2505" transform="matrix(-1,1.110223e-16,-1.110223e-16,-1,752.8966,920.2434)">
						<path id="path2507" class="st5" d="M239.5,553.8c0.3,0.5,0.5,1,0.8,1.5c9.8,16.8,31.4,22.6,48.3,12.9
						c16.9-9.7,22.7-31.3,12.9-48.1c-0.3-0.5-0.6-1-0.9-1.5c8.5,16.6,2.6,37.1-13.8,46.5C270.4,574.6,249.6,569.4,239.5,553.8z" />
						<path id="path2509" class="st6" d="M240.3,555.3c-0.3-0.5-0.6-1-0.9-1.5c-9.8-16.8-4-38.4,12.9-48.1s38.5-3.9,48.3,12.9
						c0.3,0.5,0.5,1,0.8,1.5c-10.2-15.6-31-20.8-47.3-11.4C237.8,518.2,231.8,538.7,240.3,555.3z" />
					</g>
				</g>
				<g id="g2511" transform="translate(0,100.9214)">
					<g id="g2513" transform="matrix(-1,1.110223e-16,-1.110223e-16,-1,652.1114,920.2434)">
						<path id="path2515" class="st5" d="M209.6,523.9c0.3,0.5,0.5,1,0.8,1.5c9.8,16.8,31.4,22.6,48.3,12.9
						c16.9-9.7,22.7-31.3,12.9-48.1c-0.3-0.5-0.6-1-0.9-1.5c8.5,16.6,2.6,37.1-13.8,46.5C240.6,544.7,219.8,539.5,209.6,523.9z" />
						<path id="path2517" class="st6" d="M210.5,525.4c-0.3-0.5-0.6-1-0.9-1.5c-9.8-16.8-4-38.4,12.9-48.1
						c16.9-9.7,38.5-3.9,48.3,12.9c0.3,0.5,0.5,1,0.8,1.5c-10.2-15.6-31-20.8-47.3-11.4S202,508.8,210.5,525.4z" />
					</g>
					<g id="g2519" transform="matrix(-1,1.110223e-16,-1.110223e-16,-1,551.3262,920.2434)">
						<path id="path2521" class="st5" d="M179.8,523.9c0.3,0.5,0.5,1,0.8,1.5c9.8,16.8,31.4,22.6,48.3,12.9
						c16.9-9.7,22.7-31.3,12.9-48.1c-0.3-0.5-0.6-1-0.9-1.5c8.5,16.6,2.6,37.1-13.8,46.5C210.7,544.7,189.9,539.5,179.8,523.9z" />
						<path id="path2523" class="st6" d="M180.6,525.4c-0.3-0.5-0.6-1-0.9-1.5c-9.8-16.8-4-38.4,12.9-48.1
						c16.9-9.7,38.5-3.9,48.3,12.9c0.3,0.5,0.5,1,0.8,1.5c-10.2-15.6-31-20.8-47.3-11.4S172.1,508.8,180.6,525.4z" />
					</g>
					<g id="g2525" transform="matrix(-1,1.110223e-16,-1.110223e-16,-1,450.541,920.2434)">
						<path id="path2527" class="st5" d="M149.9,523.9c0.3,0.5,0.5,1,0.8,1.5c9.8,16.8,31.4,22.6,48.3,12.9
						c16.9-9.7,22.7-31.3,12.9-48.1c-0.3-0.5-0.6-1-0.9-1.5c8.5,16.6,2.6,37.1-13.8,46.5C180.9,544.7,160.1,539.5,149.9,523.9z" />
						<path id="path2529" class="st6" d="M150.8,525.4c-0.3-0.5-0.6-1-0.9-1.5c-9.8-16.8-4-38.4,12.9-48.1
						c16.9-9.7,38.5-3.9,48.3,12.9c0.3,0.5,0.5,1,0.8,1.5c-10.2-15.6-31-20.8-47.3-11.4S142.3,508.8,150.8,525.4z" />
					</g>
					<g id="g2531" transform="matrix(-1,1.110223e-16,-1.110223e-16,-1,349.7558,920.2434)">
						<path id="path2533" class="st5" d="M120.1,523.9c0.3,0.5,0.5,1,0.8,1.5c9.8,16.8,31.4,22.6,48.3,12.9
						c16.9-9.7,22.7-31.3,12.9-48.1c-0.3-0.5-0.6-1-0.9-1.5c8.5,16.6,2.6,37.1-13.8,46.5C151,544.7,130.2,539.5,120.1,523.9z" />
						<path id="path2535" class="st6" d="M120.9,525.4c-0.3-0.5-0.6-1-0.9-1.5c-9.8-16.8-4-38.4,12.9-48.1
						c16.9-9.7,38.5-3.9,48.3,12.9c0.3,0.5,0.5,1,0.8,1.5c-10.2-15.6-31-20.8-47.3-11.4C118.4,488.3,112.4,508.8,120.9,525.4z" />
					</g>
					<g id="g2537" transform="matrix(-1,1.110223e-16,-1.110223e-16,-1,248.9706,920.2434)">
						<path id="path2539" class="st5" d="M90.2,523.9c0.3,0.5,0.5,1,0.8,1.5c9.8,16.8,31.4,22.6,48.3,12.9
						c16.9-9.7,22.7-31.3,12.9-48.1c-0.3-0.5-0.6-1-0.9-1.5c8.5,16.6,2.6,37.1-13.8,46.5C121.2,544.7,100.4,539.5,90.2,523.9z" />
						<path id="path2541" class="st6" d="M91.1,525.4c-0.3-0.5-0.6-1-0.9-1.5c-9.8-16.8-4-38.4,12.9-48.1
						c16.9-9.7,38.5-3.9,48.3,12.9c0.3,0.5,0.5,1,0.8,1.5c-10.2-15.6-31-20.8-47.3-11.4S82.6,508.8,91.1,525.4z" />
					</g>
					<g id="g2543" transform="matrix(-1,1.110223e-16,-1.110223e-16,-1,148.1854,920.2434)">
						<path id="path2545" class="st5" d="M60.4,523.9c0.3,0.5,0.5,1,0.8,1.5c9.8,16.8,31.4,22.6,48.3,12.9
						c16.9-9.7,22.7-31.3,12.9-48.1c-0.3-0.5-0.6-1-0.9-1.5c8.5,16.6,2.6,37.1-13.8,46.5C91.3,544.7,70.5,539.5,60.4,523.9z" />
						<path id="path2547" class="st6" d="M61.2,525.4c-0.3-0.5-0.6-1-0.9-1.5c-9.8-16.8-4-38.4,12.9-48.1
						c16.9-9.7,38.5-3.9,48.3,12.9c0.3,0.5,0.5,1,0.8,1.5c-10.2-15.6-31-20.8-47.3-11.4S52.7,508.8,61.2,525.4z" />
					</g>
					<g id="g2549" transform="matrix(-1,1.110223e-16,-1.110223e-16,-1,752.8966,920.2434)">
						<path id="path2551" class="st5" d="M239.5,523.9c0.3,0.5,0.5,1,0.8,1.5c9.8,16.8,31.4,22.6,48.3,12.9
						c16.9-9.7,22.7-31.3,12.9-48.1c-0.3-0.5-0.6-1-0.9-1.5c8.5,16.6,2.6,37.1-13.8,46.5C270.4,544.7,249.6,539.5,239.5,523.9z" />
						<path id="path2553" class="st6" d="M240.3,525.4c-0.3-0.5-0.6-1-0.9-1.5c-9.8-16.8-4-38.4,12.9-48.1
						c16.9-9.7,38.5-3.9,48.3,12.9c0.3,0.5,0.5,1,0.8,1.5c-10.2-15.6-31-20.8-47.3-11.4S231.8,508.8,240.3,525.4z" />
					</g>
				</g>
				<g id="g2555">
					<g id="g2557" transform="matrix(-1,1.110223e-16,-1.110223e-16,-1,652.1114,920.2434)">
						<path id="path2559" class="st5" d="M209.6,494c0.3,0.5,0.5,1,0.8,1.5c9.8,16.8,31.4,22.6,48.3,12.9
						c16.9-9.7,22.7-31.3,12.9-48.1c-0.3-0.5-0.6-1-0.9-1.5c8.5,16.6,2.6,37.1-13.8,46.5C240.6,514.8,219.8,509.7,209.6,494z" />
						<path id="path2561" class="st6" d="M210.5,495.5c-0.3-0.5-0.6-1-0.9-1.5c-9.8-16.8-4-38.4,12.9-48.1s38.5-3.9,48.3,12.9
						c0.3,0.5,0.5,1,0.8,1.5c-10.2-15.6-31-20.8-47.3-11.4C207.9,458.4,202,478.9,210.5,495.5z" />
					</g>
					<g id="g2563" transform="matrix(-1,1.110223e-16,-1.110223e-16,-1,551.3262,920.2434)">
						<path id="path2565" class="st5" d="M179.8,494c0.3,0.5,0.5,1,0.8,1.5c9.8,16.8,31.4,22.6,48.3,12.9
						c16.9-9.7,22.7-31.3,12.9-48.1c-0.3-0.5-0.6-1-0.9-1.5c8.5,16.6,2.6,37.1-13.8,46.5C210.7,514.8,189.9,509.7,179.8,494z" />
						<path id="path2567" class="st6" d="M180.6,495.5c-0.3-0.5-0.6-1-0.9-1.5c-9.8-16.8-4-38.4,12.9-48.1s38.5-3.9,48.3,12.9
						c0.3,0.5,0.5,1,0.8,1.5c-10.2-15.6-31-20.8-47.3-11.4C178.1,458.4,172.1,478.9,180.6,495.5z" />
					</g>
					<g id="g2569" transform="matrix(-1,1.110223e-16,-1.110223e-16,-1,450.541,920.2434)">
						<path id="path2571" class="st5" d="M149.9,494c0.3,0.5,0.5,1,0.8,1.5c9.8,16.8,31.4,22.6,48.3,12.9
						c16.9-9.7,22.7-31.3,12.9-48.1c-0.3-0.5-0.6-1-0.9-1.5c8.5,16.6,2.6,37.1-13.8,46.5C180.9,514.8,160.1,509.7,149.9,494z" />
						<path id="path2573" class="st6" d="M150.8,495.5c-0.3-0.5-0.6-1-0.9-1.5c-9.8-16.8-4-38.4,12.9-48.1s38.5-3.9,48.3,12.9
						c0.3,0.5,0.5,1,0.8,1.5c-10.2-15.6-31-20.8-47.3-11.4C148.2,458.4,142.3,478.9,150.8,495.5z" />
					</g>
					<g id="g2575" transform="matrix(-1,1.110223e-16,-1.110223e-16,-1,349.7558,920.2434)">
						<path id="path2577" class="st5" d="M120.1,494c0.3,0.5,0.5,1,0.8,1.5c9.8,16.8,31.4,22.6,48.3,12.9
						c16.9-9.7,22.7-31.3,12.9-48.1c-0.3-0.5-0.6-1-0.9-1.5c8.5,16.6,2.6,37.1-13.8,46.5C151,514.8,130.2,509.7,120.1,494z" />
						<path id="path2579" class="st6" d="M120.9,495.5c-0.3-0.5-0.6-1-0.9-1.5c-9.8-16.8-4-38.4,12.9-48.1s38.5-3.9,48.3,12.9
						c0.3,0.5,0.5,1,0.8,1.5c-10.2-15.6-31-20.8-47.3-11.4C118.4,458.4,112.4,478.9,120.9,495.5z" />
					</g>
					<g id="g2581" transform="matrix(-1,1.110223e-16,-1.110223e-16,-1,248.9706,920.2434)">
						<path id="path2583" class="st5" d="M90.2,494c0.3,0.5,0.5,1,0.8,1.5c9.8,16.8,31.4,22.6,48.3,12.9
						c16.9-9.7,22.7-31.3,12.9-48.1c-0.3-0.5-0.6-1-0.9-1.5c8.5,16.6,2.6,37.1-13.8,46.5C121.2,514.8,100.4,509.7,90.2,494z" />
						<path id="path2585" class="st6" d="M91.1,495.5c-0.3-0.5-0.6-1-0.9-1.5c-9.8-16.8-4-38.4,12.9-48.1s38.5-3.9,48.3,12.9
						c0.3,0.5,0.5,1,0.8,1.5c-10.2-15.6-31-20.8-47.3-11.4C88.5,458.4,82.6,478.9,91.1,495.5z" />
					</g>
					<g id="g2587" transform="matrix(-1,1.110223e-16,-1.110223e-16,-1,148.1854,920.2434)">
						<path id="path2589" class="st5" d="M60.4,494c0.3,0.5,0.5,1,0.8,1.5c9.8,16.8,31.4,22.6,48.3,12.9
						c16.9-9.7,22.7-31.3,12.9-48.1c-0.3-0.5-0.6-1-0.9-1.5c8.5,16.6,2.6,37.1-13.8,46.5C91.3,514.8,70.5,509.7,60.4,494z" />
						<path id="path2591" class="st6" d="M61.2,495.5c-0.3-0.5-0.6-1-0.9-1.5c-9.8-16.8-4-38.4,12.9-48.1s38.5-3.9,48.3,12.9
						c0.3,0.5,0.5,1,0.8,1.5c-10.2-15.6-31-20.8-47.3-11.4C58.7,458.4,52.7,478.9,61.2,495.5z" />
					</g>
					<g id="g2593" transform="matrix(-1,1.110223e-16,-1.110223e-16,-1,752.8966,920.2434)">
						<path id="path2595" class="st5" d="M239.5,494c0.3,0.5,0.5,1,0.8,1.5c9.8,16.8,31.4,22.6,48.3,12.9
						c16.9-9.7,22.7-31.3,12.9-48.1c-0.3-0.5-0.6-1-0.9-1.5c8.5,16.6,2.6,37.1-13.8,46.5C270.4,514.8,249.6,509.7,239.5,494z" />
						<path id="path2597" class="st6" d="M240.3,495.5c-0.3-0.5-0.6-1-0.9-1.5c-9.8-16.8-4-38.4,12.9-48.1s38.5-3.9,48.3,12.9
						c0.3,0.5,0.5,1,0.8,1.5c-10.2-15.6-31-20.8-47.3-11.4C237.8,458.4,231.8,478.9,240.3,495.5z" />
					</g>
				</g>
				<g id="g2599" transform="translate(0,504.6068)">
					<g id="g2601" transform="matrix(-1,1.110223e-16,-1.110223e-16,-1,652.1114,920.2434)">
						<path id="path2603" class="st5" d="M209.6,643.5c0.3,0.5,0.5,1,0.8,1.5c9.8,16.8,31.4,22.6,48.3,12.9
						c16.9-9.7,22.7-31.3,12.9-48.1c-0.3-0.5-0.6-1-0.9-1.5c8.5,16.6,2.6,37.1-13.8,46.5C240.6,664.3,219.8,659.1,209.6,643.5z" />
						<path id="path2605" class="st6" d="M210.5,645c-0.3-0.5-0.6-1-0.9-1.5c-9.8-16.8-4-38.4,12.9-48.1c16.9-9.7,38.5-3.9,48.3,12.9
						c0.3,0.5,0.5,1,0.8,1.5c-10.2-15.6-31-20.8-47.3-11.4S202,628.4,210.5,645z" />
					</g>
					<g id="g2607" transform="matrix(-1,1.110223e-16,-1.110223e-16,-1,551.3262,920.2434)">
						<path id="path2609" class="st5" d="M179.8,643.5c0.3,0.5,0.5,1,0.8,1.5c9.8,16.8,31.4,22.6,48.3,12.9
						c16.9-9.7,22.7-31.3,12.9-48.1c-0.3-0.5-0.6-1-0.9-1.5c8.5,16.6,2.6,37.1-13.8,46.5C210.7,664.3,189.9,659.1,179.8,643.5z" />
						<path id="path2611" class="st6" d="M180.6,645c-0.3-0.5-0.6-1-0.9-1.5c-9.8-16.8-4-38.4,12.9-48.1c16.9-9.7,38.5-3.9,48.3,12.9
						c0.3,0.5,0.5,1,0.8,1.5c-10.2-15.6-31-20.8-47.3-11.4S172.1,628.4,180.6,645z" />
					</g>
					<g id="g2613" transform="matrix(-1,1.110223e-16,-1.110223e-16,-1,450.541,920.2434)">
						<path id="path2615" class="st5" d="M149.9,643.5c0.3,0.5,0.5,1,0.8,1.5c9.8,16.8,31.4,22.6,48.3,12.9
						c16.9-9.7,22.7-31.3,12.9-48.1c-0.3-0.5-0.6-1-0.9-1.5c8.5,16.6,2.6,37.1-13.8,46.5C180.9,664.3,160.1,659.1,149.9,643.5z" />
						<path id="path2617" class="st6" d="M150.8,645c-0.3-0.5-0.6-1-0.9-1.5c-9.8-16.8-4-38.4,12.9-48.1c16.9-9.7,38.5-3.9,48.3,12.9
						c0.3,0.5,0.5,1,0.8,1.5c-10.2-15.6-31-20.8-47.3-11.4S142.3,628.4,150.8,645z" />
					</g>
					<g id="g2619" transform="matrix(-1,1.110223e-16,-1.110223e-16,-1,349.7558,920.2434)">
						<path id="path2621" class="st5" d="M120.1,643.5c0.3,0.5,0.5,1,0.8,1.5c9.8,16.8,31.4,22.6,48.3,12.9
						c16.9-9.7,22.7-31.3,12.9-48.1c-0.3-0.5-0.6-1-0.9-1.5c8.5,16.6,2.6,37.1-13.8,46.5C151,664.3,130.2,659.1,120.1,643.5z" />
						<path id="path2623" class="st6" d="M120.9,645c-0.3-0.5-0.6-1-0.9-1.5c-9.8-16.8-4-38.4,12.9-48.1c16.9-9.7,38.5-3.9,48.3,12.9
						c0.3,0.5,0.5,1,0.8,1.5c-10.2-15.6-31-20.8-47.3-11.4C118.4,607.9,112.4,628.4,120.9,645z" />
					</g>
					<g id="g2625" transform="matrix(-1,1.110223e-16,-1.110223e-16,-1,248.9706,920.2434)">
						<path id="path2627" class="st5" d="M90.2,643.5c0.3,0.5,0.5,1,0.8,1.5c9.8,16.8,31.4,22.6,48.3,12.9
						c16.9-9.7,22.7-31.3,12.9-48.1c-0.3-0.5-0.6-1-0.9-1.5c8.5,16.6,2.6,37.1-13.8,46.5C121.2,664.3,100.4,659.1,90.2,643.5z" />
						<path id="path2629" class="st6" d="M91.1,645c-0.3-0.5-0.6-1-0.9-1.5c-9.8-16.8-4-38.4,12.9-48.1c16.9-9.7,38.5-3.9,48.3,12.9
						c0.3,0.5,0.5,1,0.8,1.5c-10.2-15.6-31-20.8-47.3-11.4S82.6,628.4,91.1,645z" />
					</g>
					<g id="g2631" transform="matrix(-1,1.110223e-16,-1.110223e-16,-1,148.1854,920.2434)">
						<path id="path2633" class="st5" d="M60.4,643.5c0.3,0.5,0.5,1,0.8,1.5c9.8,16.8,31.4,22.6,48.3,12.9
						c16.9-9.7,22.7-31.3,12.9-48.1c-0.3-0.5-0.6-1-0.9-1.5c8.5,16.6,2.6,37.1-13.8,46.5C91.3,664.3,70.5,659.1,60.4,643.5z" />
						<path id="path2635" class="st6" d="M61.2,645c-0.3-0.5-0.6-1-0.9-1.5c-9.8-16.8-4-38.4,12.9-48.1c16.9-9.7,38.5-3.9,48.3,12.9
						c0.3,0.5,0.5,1,0.8,1.5c-10.2-15.6-31-20.8-47.3-11.4S52.7,628.4,61.2,645z" />
					</g>
					<g id="g2637" transform="matrix(-1,1.110223e-16,-1.110223e-16,-1,752.8966,920.2434)">
						<path id="path2639" class="st5" d="M239.5,643.5c0.3,0.5,0.5,1,0.8,1.5c9.8,16.8,31.4,22.6,48.3,12.9
						c16.9-9.7,22.7-31.3,12.9-48.1c-0.3-0.5-0.6-1-0.9-1.5c8.5,16.6,2.6,37.1-13.8,46.5C270.4,664.3,249.6,659.1,239.5,643.5z" />
						<path id="path2641" class="st6" d="M240.3,645c-0.3-0.5-0.6-1-0.9-1.5c-9.8-16.8-4-38.4,12.9-48.1c16.9-9.7,38.5-3.9,48.3,12.9
						c0.3,0.5,0.5,1,0.8,1.5c-10.2-15.6-31-20.8-47.3-11.4S231.8,628.4,240.3,645z" />
					</g>
				</g>
			</g>
		</g>
	</g>
	<g></g>
</svg>
