<?xml version="1.0" encoding="utf-8"?>
<!-- Generator: Adobe Illustrator 25.0.0, SVG Export Plug-In . SVG Version: 6.00 Build 0)  -->
<svg version="1.0" id="Layer_1" xmlns="http://www.w3.org/2000/svg" xmlns:xlink="http://www.w3.org/1999/xlink" x="0px" y="0px" viewBox="0 0 64.4 63.91" enable-background="new 0 0 64.4 63.91" xml:space="preserve">
	<g id="g2332" transform="translate(86.6383,692.6067)">
		<path id="path1447" fill-rule="evenodd" clip-rule="evenodd" fill="#ED2224" d="M-26.56-676.62c8.9,15.27,3.63,34.81-11.76,43.63
		s-35.08,3.6-43.98-11.67c0-0.01-0.01-0.02-0.01-0.02c-8.9-15.27-3.63-34.81,11.76-43.63s35.08-3.6,43.98,11.67
		C-26.57-676.64-26.57-676.63-26.56-676.62z" />
		<g id="g2326" transform="matrix(0.866025,-0.5,0.5,0.866025,-33.11146,-38.98956)">
			<path id="path2328" fill-rule="evenodd" clip-rule="evenodd" fill="#FFFFFF" fill-opacity="0.7118" d="M264.44-549.81
			c-0.02,0.45-0.04,0.89-0.04,1.35c0.05,15.38,12.63,27.9,28.06,27.95c15.44,0.05,27.93-12.39,27.87-27.77
			c0-0.46-0.03-0.9-0.05-1.35c-0.7,14.71-12.88,26.39-27.83,26.34S265.24-535.1,264.44-549.81z" />
			<path id="path2330" fill-rule="evenodd" clip-rule="evenodd" fill="#010101" fill-opacity="0.345" d="M264.44-548.46
			c-0.02-0.45-0.05-0.9-0.05-1.35c-0.05-15.38,12.44-27.82,27.87-27.77c15.44,0.05,28.01,12.58,28.06,27.95
			c0,0.46-0.02,0.9-0.04,1.35c-0.8-14.71-13.06-26.48-28.01-26.53C277.32-574.85,265.14-563.17,264.44-548.46z" />
		</g>
	</g>
</svg>
