<?xml version="1.0" encoding="utf-8"?>
<!-- Generator: Adobe Illustrator 25.0.0, SVG Export Plug-In . SVG Version: 6.00 Build 0)  -->
<svg version="1.0" id="Layer_1" xmlns="http://www.w3.org/2000/svg" xmlns:xlink="http://www.w3.org/1999/xlink" x="0px" y="0px" viewBox="0 0 64.4 63.91" enable-background="new 0 0 64.4 63.91" xml:space="preserve">
	<g id="g2922" transform="translate(-96.62518,464.1788)">
		<path id="path2924" fill-rule="evenodd" clip-rule="evenodd" fill="#FBAD18" d="M156.7-448.19c8.9,15.27,3.63,34.81-11.76,43.63
		c-15.39,8.83-35.08,3.6-43.98-11.67c0-0.01-0.01-0.02-0.01-0.02c-8.9-15.27-3.63-34.81,11.76-43.63
		c15.39-8.83,35.08-3.6,43.98,11.67C156.69-448.21,156.7-448.2,156.7-448.19z" />
		<g id="g2926" transform="matrix(0.866025,-0.5,0.5,0.866025,246.7984,188.937)">
			<path id="path2928" fill-rule="evenodd" clip-rule="evenodd" fill="#FFFFFF" fill-opacity="0.7118" d="M180.49-597.7
			c-0.02,0.45-0.04,0.89-0.04,1.35c0.05,15.38,12.63,27.9,28.06,27.95c15.44,0.05,27.93-12.39,27.87-27.77
			c0-0.46-0.03-0.9-0.05-1.35c-0.7,14.71-12.88,26.39-27.83,26.34C193.55-571.22,181.29-582.99,180.49-597.7z" />
			<path id="path2930" fill-rule="evenodd" clip-rule="evenodd" fill="#010101" fill-opacity="0.345" d="M180.49-596.35
			c-0.02-0.45-0.05-0.9-0.05-1.35c-0.05-15.38,12.44-27.82,27.87-27.77c15.44,0.05,28.01,12.58,28.06,27.95
			c0,0.46-0.02,0.9-0.04,1.35c-0.8-14.71-13.06-26.48-28.01-26.53C193.37-622.74,181.19-611.05,180.49-596.35z" />
		</g>
	</g>
</svg>
